<?xml version="1.0" encoding="iso-8859-1"?>
<!-- Generator: Adobe Illustrator 23.0.2, SVG Export Plug-In . SVG Version: 6.00 Build 0)  -->
<svg version="1.1" id="Layer_1" xmlns="http://www.w3.org/2000/svg" xmlns:xlink="http://www.w3.org/1999/xlink" x="0px" y="0px"
	 viewBox="0 0 700 550" style="enable-background:new 0 0 700 550;" xml:space="preserve">
<g>
	<g>
		<g>
			<path style="fill:#D5EFC8;" d="M427.841,465.656c16.25-5.08,30.83-10.27,48.37-20.12c18.09-10.16,98.45-58.51,108.9-142.19
				c4.35-34.85-4.99-63.27-6.66-68.16c-3.23-9.47-9.93-28.49-26.84-47.3c-20.7-23.04-44.32-31.97-58.17-37.02
				c-29.14-10.63-53.58-10.07-65.22-9.69c-12.56,0.41-34.73,1.33-59.93,12.34c-16.44,7.18-26.66,15.37-41.72,27.61
				c-23.86,19.41-27,27.49-68.74,67.57c-11.46,11-20.88,19.67-35.26,28.21c-9.97,5.92-18.03,9.23-32.9,15.27
				c-36.55,14.85-46.957,17.857-58.917,26.217c-23.26,16.27-21.753,34.013-22.753,37.833c-3.83,14.48-2.32,26.33-1.77,29.97
				c3.05,20.07,13.86,33.19,20.57,41.13c13.13,15.52,27.41,23.45,32.9,26.44c5.59,3.04,14.72,7.38,26.96,11.89H427.841z"/>
			<path style="fill:none;stroke:#D5EFC8;stroke-miterlimit:10;" d="M366.779,146.857c26.246-11.46,49.336-12.427,62.427-12.853
				c12.116-0.394,37.574-0.975,67.935,10.098c14.426,5.262,39.027,14.563,60.591,38.558c17.608,19.592,24.587,39.407,27.949,49.268
				c1.738,5.096,11.467,34.697,6.936,70.995c-10.879,87.168-94.587,137.525-113.429,148.111"/>
		</g>
	</g>
	<g>
		<path style="fill:#935B50;" d="M532.208,226.481v237.935H586V226.481c0-1.426-1.156-2.581-2.581-2.581h-48.63
			C533.363,223.9,532.208,225.055,532.208,226.481z"/>
		<path style="fill:#E19974;" d="M580.45,302.73h-42.693c-1.426,0-2.581-1.156-2.581-2.581v-30.381c0-1.426,1.156-2.581,2.581-2.581
			h42.693c1.426,0,2.581,1.156,2.581,2.581v30.381C583.032,301.574,581.876,302.73,580.45,302.73z"/>
		<path style="fill:#E19974;" d="M580.45,263.315h-42.693c-1.426,0-2.581-1.156-2.581-2.581v-30.381
			c0-1.426,1.156-2.581,2.581-2.581h42.693c1.426,0,2.581,1.156,2.581,2.581v30.381C583.032,262.159,581.876,263.315,580.45,263.315
			z"/>
		<g>
			<g>
				<path style="fill:#D6694B;" d="M579.992,258.804c0.815,0.614,0.644,1.714,0.047,2.3c-0.584,0.599-1.686,0.773-2.3-0.047
					c0.291-0.421,0.441-0.679,0.561-0.898c0.12-0.209,0.207-0.354,0.325-0.469C578.867,259.444,579.181,259.371,579.992,258.804z"/>
			</g>
			<g>
				<path style="fill:#D6694B;" d="M577.739,230.029c0.614-0.815,1.714-0.644,2.3-0.047c0.599,0.584,0.773,1.686-0.047,2.3
					c-0.421-0.291-0.679-0.441-0.898-0.561c-0.209-0.12-0.354-0.207-0.469-0.325C578.379,231.154,578.306,230.84,577.739,230.029z"
					/>
			</g>
			<g>
				<path style="fill:#D6694B;" d="M538.216,232.283c-0.815-0.614-0.644-1.714-0.047-2.3c0.584-0.599,1.686-0.773,2.3,0.047
					c-0.291,0.421-0.441,0.679-0.561,0.898c-0.12,0.209-0.207,0.354-0.325,0.469C539.341,231.642,539.027,231.715,538.216,232.283z"
					/>
			</g>
			<g>
				<path style="fill:#D6694B;" d="M540.469,261.057c-0.614,0.815-1.714,0.644-2.3,0.047c-0.599-0.584-0.773-1.686,0.047-2.3
					c0.421,0.291,0.679,0.441,0.898,0.561c0.209,0.12,0.354,0.207,0.469,0.325C539.829,259.932,539.901,260.246,540.469,261.057z"/>
			</g>
		</g>
		<g>
			<g>
				<path style="fill:#D6694B;" d="M579.992,298.219c0.815,0.614,0.644,1.714,0.047,2.3c-0.584,0.599-1.686,0.773-2.3-0.047
					c0.291-0.421,0.441-0.679,0.561-0.898c0.12-0.209,0.207-0.354,0.325-0.469C578.867,298.859,579.181,298.786,579.992,298.219z"/>
			</g>
			<g>
				<path style="fill:#D6694B;" d="M577.739,269.444c0.614-0.815,1.714-0.644,2.3-0.047c0.599,0.584,0.773,1.686-0.047,2.3
					c-0.421-0.291-0.679-0.441-0.898-0.561c-0.209-0.12-0.354-0.206-0.469-0.325C578.379,270.569,578.306,270.255,577.739,269.444z"
					/>
			</g>
			<g>
				<path style="fill:#D6694B;" d="M538.216,271.698c-0.815-0.614-0.644-1.714-0.047-2.3c0.584-0.599,1.686-0.773,2.3,0.047
					c-0.291,0.421-0.441,0.679-0.561,0.898c-0.12,0.209-0.207,0.354-0.325,0.469C539.341,271.057,539.027,271.13,538.216,271.698z"
					/>
			</g>
			<g>
				<path style="fill:#D6694B;" d="M540.469,300.472c-0.614,0.815-1.714,0.644-2.3,0.047c-0.599-0.584-0.773-1.686,0.047-2.3
					c0.421,0.291,0.679,0.441,0.898,0.561c0.209,0.12,0.354,0.206,0.469,0.325C539.829,299.347,539.901,299.661,540.469,300.472z"/>
			</g>
		</g>
		<path style="fill:#E19974;" d="M580.45,342.144h-42.693c-1.426,0-2.581-1.156-2.581-2.581v-30.381
			c0-1.426,1.156-2.581,2.581-2.581h42.693c1.426,0,2.581,1.156,2.581,2.581v30.381C583.032,340.989,581.876,342.144,580.45,342.144
			z"/>
		<path style="fill:#E19974;" d="M580.45,381.559h-42.693c-1.426,0-2.581-1.156-2.581-2.581v-30.381
			c0-1.426,1.156-2.581,2.581-2.581h42.693c1.426,0,2.581,1.156,2.581,2.581v30.381C583.032,380.404,581.876,381.559,580.45,381.559
			z"/>
		<path style="fill:#E19974;" d="M580.45,420.974h-42.693c-1.426,0-2.581-1.156-2.581-2.581v-30.381
			c0-1.426,1.156-2.581,2.581-2.581h42.693c1.426,0,2.581,1.156,2.581,2.581v30.381C583.032,419.819,581.876,420.974,580.45,420.974
			z"/>
		<path style="fill:#E19974;" d="M580.45,460.389h-42.693c-1.426,0-2.581-1.156-2.581-2.581v-30.381
			c0-1.426,1.156-2.581,2.581-2.581h42.693c1.426,0,2.581,1.156,2.581,2.581v30.381C583.032,459.233,581.876,460.389,580.45,460.389
			z"/>
		<g>
			<path style="fill:#D6694B;" d="M565.46,246.124h-12.713c-0.552,0-1-0.448-1-1v-3.421c0-0.552,0.448-1,1-1h12.713
				c0.552,0,1,0.448,1,1v3.421C566.46,245.676,566.013,246.124,565.46,246.124z"/>
		</g>
		<g>
			<path style="fill:#D6694B;" d="M565.46,324.954h-12.713c-0.552,0-1-0.448-1-1v-3.421c0-0.552,0.448-1,1-1h12.713
				c0.552,0,1,0.448,1,1v3.421C566.46,324.506,566.013,324.954,565.46,324.954z"/>
		</g>
		<g>
			<path style="fill:#D6694B;" d="M565.46,364.369h-12.713c-0.552,0-1-0.448-1-1v-3.421c0-0.552,0.448-1,1-1h12.713
				c0.552,0,1,0.448,1,1v3.421C566.46,363.921,566.013,364.369,565.46,364.369z"/>
		</g>
		<g>
			<path style="fill:#D6694B;" d="M565.46,443.198h-12.713c-0.552,0-1-0.448-1-1v-3.421c0-0.552,0.448-1,1-1h12.713
				c0.552,0,1,0.448,1,1v3.421C566.46,442.751,566.013,443.198,565.46,443.198z"/>
		</g>
		<g>
			<path style="fill:#D6694B;" d="M565.46,403.783h-12.713c-0.552,0-1-0.448-1-1v-3.421c0-0.552,0.448-1,1-1h12.713
				c0.552,0,1,0.448,1,1v3.421C566.46,403.336,566.013,403.783,565.46,403.783z"/>
		</g>
		<g>
			<path style="fill:#D6694B;" d="M565.46,285.539h-12.713c-0.552,0-1-0.448-1-1v-3.421c0-0.552,0.448-1,1-1h12.713
				c0.552,0,1,0.448,1,1v3.421C566.46,285.091,566.013,285.539,565.46,285.539z"/>
		</g>
		<g>
			<g>
				<path style="fill:#D6694B;" d="M579.992,337.633c0.815,0.614,0.644,1.714,0.047,2.3c-0.584,0.599-1.686,0.773-2.3-0.047
					c0.291-0.421,0.441-0.679,0.561-0.898c0.12-0.209,0.207-0.354,0.325-0.469C578.867,338.274,579.181,338.201,579.992,337.633z"/>
			</g>
			<g>
				<path style="fill:#D6694B;" d="M577.739,308.859c0.614-0.815,1.714-0.644,2.3-0.047c0.599,0.584,0.773,1.686-0.047,2.3
					c-0.421-0.291-0.679-0.441-0.898-0.561c-0.209-0.12-0.354-0.207-0.469-0.325C578.379,309.984,578.306,309.67,577.739,308.859z"
					/>
			</g>
			<g>
				<path style="fill:#D6694B;" d="M538.216,311.112c-0.815-0.614-0.644-1.714-0.047-2.3c0.584-0.599,1.686-0.773,2.3,0.047
					c-0.291,0.421-0.441,0.679-0.561,0.898c-0.12,0.209-0.207,0.354-0.325,0.469C539.341,310.472,539.027,310.545,538.216,311.112z"
					/>
			</g>
			<g>
				<path style="fill:#D6694B;" d="M540.469,339.887c-0.614,0.815-1.714,0.644-2.3,0.047c-0.599-0.584-0.773-1.686,0.047-2.3
					c0.421,0.291,0.679,0.441,0.898,0.561c0.209,0.12,0.354,0.207,0.469,0.325C539.829,338.762,539.901,339.076,540.469,339.887z"/>
			</g>
		</g>
		<g>
			<g>
				<path style="fill:#D6694B;" d="M579.992,377.048c0.815,0.614,0.644,1.714,0.047,2.3c-0.584,0.599-1.686,0.773-2.3-0.047
					c0.291-0.421,0.441-0.679,0.561-0.898c0.12-0.209,0.207-0.354,0.325-0.469C578.867,377.689,579.181,377.616,579.992,377.048z"/>
			</g>
			<g>
				<path style="fill:#D6694B;" d="M577.739,348.274c0.614-0.815,1.714-0.644,2.3-0.047c0.599,0.584,0.773,1.686-0.047,2.3
					c-0.421-0.291-0.679-0.441-0.898-0.561c-0.209-0.12-0.354-0.207-0.469-0.325C578.379,349.399,578.306,349.085,577.739,348.274z"
					/>
			</g>
			<g>
				<path style="fill:#D6694B;" d="M538.216,350.527c-0.815-0.614-0.644-1.714-0.047-2.3c0.584-0.599,1.686-0.773,2.3,0.047
					c-0.291,0.421-0.441,0.679-0.561,0.898c-0.12,0.209-0.207,0.354-0.325,0.469C539.341,349.887,539.027,349.959,538.216,350.527z"
					/>
			</g>
			<g>
				<path style="fill:#D6694B;" d="M540.469,379.302c-0.614,0.815-1.714,0.644-2.3,0.047c-0.599-0.584-0.773-1.686,0.047-2.3
					c0.421,0.292,0.679,0.441,0.898,0.561c0.209,0.12,0.354,0.207,0.469,0.325C539.829,378.177,539.901,378.491,540.469,379.302z"/>
			</g>
		</g>
		<g>
			<g>
				<path style="fill:#D6694B;" d="M579.992,455.878c0.815,0.614,0.644,1.714,0.047,2.3c-0.584,0.599-1.686,0.773-2.3-0.047
					c0.291-0.421,0.441-0.679,0.561-0.898c0.12-0.209,0.207-0.354,0.325-0.469C578.867,456.518,579.181,456.446,579.992,455.878z"/>
			</g>
			<g>
				<path style="fill:#D6694B;" d="M577.739,427.104c0.614-0.815,1.714-0.644,2.3-0.047c0.599,0.584,0.773,1.686-0.047,2.3
					c-0.421-0.292-0.679-0.441-0.898-0.561c-0.209-0.12-0.354-0.207-0.469-0.325C578.379,428.228,578.306,427.915,577.739,427.104z"
					/>
			</g>
			<g>
				<path style="fill:#D6694B;" d="M538.216,429.357c-0.815-0.614-0.644-1.714-0.047-2.3c0.584-0.599,1.686-0.773,2.3,0.047
					c-0.291,0.421-0.441,0.679-0.561,0.898c-0.12,0.209-0.207,0.354-0.325,0.469C539.341,428.717,539.027,428.789,538.216,429.357z"
					/>
			</g>
			<g>
				<path style="fill:#D6694B;" d="M540.469,458.131c-0.614,0.815-1.714,0.644-2.3,0.047c-0.599-0.584-0.773-1.686,0.047-2.3
					c0.421,0.291,0.679,0.441,0.898,0.561c0.209,0.12,0.354,0.207,0.469,0.325C539.829,457.006,539.901,457.32,540.469,458.131z"/>
			</g>
		</g>
		<g>
			<g>
				<path style="fill:#D6694B;" d="M579.992,416.463c0.815,0.614,0.644,1.714,0.047,2.3c-0.584,0.599-1.686,0.773-2.3-0.047
					c0.291-0.421,0.441-0.679,0.561-0.898c0.12-0.209,0.207-0.354,0.325-0.469C578.867,417.104,579.181,417.031,579.992,416.463z"/>
			</g>
			<g>
				<path style="fill:#D6694B;" d="M577.739,387.689c0.614-0.815,1.714-0.644,2.3-0.047c0.599,0.584,0.773,1.686-0.047,2.3
					c-0.421-0.291-0.679-0.441-0.898-0.561c-0.209-0.12-0.354-0.207-0.469-0.325C578.379,388.814,578.306,388.5,577.739,387.689z"/>
			</g>
			<g>
				<path style="fill:#D6694B;" d="M538.216,389.942c-0.815-0.614-0.644-1.714-0.047-2.3c0.584-0.599,1.686-0.773,2.3,0.047
					c-0.291,0.421-0.441,0.679-0.561,0.898c-0.12,0.209-0.207,0.354-0.325,0.469C539.341,389.302,539.027,389.374,538.216,389.942z"
					/>
			</g>
			<g>
				<path style="fill:#D6694B;" d="M540.469,418.716c-0.614,0.815-1.714,0.644-2.3,0.047c-0.599-0.584-0.773-1.686,0.047-2.3
					c0.421,0.291,0.679,0.441,0.898,0.561c0.209,0.12,0.354,0.207,0.469,0.325C539.829,417.592,539.901,417.905,540.469,418.716z"/>
			</g>
		</g>
	</g>
	<path style="fill:#8795DE;" d="M409.055,394.684H228.872v-90.089c0-11.489,9.314-20.803,20.803-20.803h138.576
		c11.489,0,20.803,9.314,20.803,20.803V394.684z"/>
	<rect x="409.055" y="329.198" style="fill:#A2AEE6;" width="57.298" height="57.298"/>
	<g>
		<path style="fill:#4F66D0;" d="M409.055,329.198c0.206,4.775,0.303,9.55,0.383,14.324c0.082,4.775,0.075,9.55,0.117,14.325
			c-0.039,4.775-0.035,9.55-0.115,14.324l-0.139,7.162c-0.083,2.387-0.132,4.775-0.245,7.162c-0.113-2.387-0.162-4.775-0.245-7.162
			l-0.14-7.162c-0.08-4.775-0.076-9.55-0.115-14.324c0.042-4.775,0.034-9.55,0.117-14.325
			C408.752,338.748,408.849,333.973,409.055,329.198z"/>
	</g>
	<g>
		<g>
			<path style="fill:#4F66D0;" d="M381.61,304.248c-0.943,0.526-1.872,1.061-2.755,1.669c-0.903,0.571-1.777,1.185-2.613,1.842
				c-1.675,1.308-3.256,2.721-4.646,4.305c-1.398,1.579-2.52,3.366-3.428,5.26l-0.602,1.463c-0.181,0.495-0.277,1.017-0.426,1.526
				l-0.224,0.769l-0.117,0.789c-0.071,0.529-0.154,1.06-0.246,1.596c-0.111-2.146,0.097-4.375,0.903-6.434
				c0.777-2.057,1.946-3.967,3.387-5.626c1.467-1.635,3.13-3.081,4.955-4.272C377.619,305.946,379.55,304.917,381.61,304.248z"/>
		</g>
		<g>
			<path style="fill:#4F66D0;" d="M389.034,339.222c-0.613-0.889-1.234-1.762-1.923-2.584c-0.654-0.844-1.348-1.657-2.082-2.426
				c-1.462-1.543-3.018-2.984-4.727-4.216c-1.704-1.242-3.59-2.19-5.562-2.913l-1.513-0.46c-0.51-0.133-1.039-0.179-1.56-0.279
				l-0.786-0.15l-0.797-0.041c-0.533-0.02-1.07-0.053-1.612-0.094c2.126-0.314,4.364-0.318,6.491,0.288
				c2.121,0.578,4.133,1.561,5.922,2.837c1.767,1.305,3.364,2.823,4.723,4.527C386.965,335.41,388.173,337.234,389.034,339.222z"/>
		</g>
		<g>
			<path style="fill:#4F66D0;" d="M338.365,326.433c1.736-1.295,3.691-2.277,5.714-3.077c2.026-0.802,4.167-1.324,6.349-1.577
				c2.187-0.218,4.421-0.069,6.549,0.484c2.146,0.532,4.086,1.649,5.774,2.979c-0.491-0.234-0.973-0.473-1.445-0.721l-0.712-0.361
				l-0.756-0.261c-0.502-0.173-0.983-0.396-1.492-0.534l-1.542-0.353c-2.071-0.353-4.178-0.469-6.274-0.24
				c-2.095,0.219-4.162,0.695-6.198,1.306c-1.02,0.302-2.025,0.662-3.013,1.069C340.313,325.518,339.339,325.967,338.365,326.433z"
				/>
		</g>
		<g>
			<path style="fill:#4F66D0;" d="M362.628,352.693c-1.125-1.851-1.916-3.89-2.521-5.98c-0.606-2.093-0.923-4.274-0.968-6.47
				c-0.009-2.198,0.351-4.407,1.104-6.473c0.733-2.086,2.029-3.911,3.514-5.465c-0.28,0.467-0.563,0.924-0.855,1.37l-0.427,0.674
				l-0.332,0.728c-0.22,0.483-0.487,0.941-0.673,1.435l-0.498,1.501c-0.548,2.028-0.864,4.114-0.834,6.223
				c0.02,2.106,0.297,4.209,0.712,6.293c0.204,1.043,0.467,2.079,0.778,3.101C361.902,350.668,362.257,351.679,362.628,352.693z"/>
		</g>
	</g>
	<g>
		<g>
			<path style="fill:#4F66D0;" d="M292.137,304.248c-0.943,0.526-1.872,1.061-2.755,1.669c-0.903,0.571-1.777,1.185-2.613,1.842
				c-1.675,1.308-3.257,2.721-4.646,4.305c-1.398,1.579-2.52,3.366-3.428,5.26l-0.602,1.463c-0.181,0.495-0.277,1.017-0.426,1.526
				l-0.224,0.769l-0.117,0.789c-0.071,0.529-0.154,1.06-0.246,1.596c-0.111-2.146,0.097-4.375,0.902-6.434
				c0.777-2.057,1.946-3.967,3.387-5.626c1.467-1.635,3.13-3.081,4.955-4.272C288.147,305.946,290.077,304.917,292.137,304.248z"/>
		</g>
		<g>
			<path style="fill:#4F66D0;" d="M299.562,339.222c-0.613-0.889-1.234-1.762-1.923-2.584c-0.654-0.844-1.348-1.657-2.082-2.426
				c-1.462-1.543-3.018-2.984-4.727-4.216c-1.704-1.242-3.59-2.19-5.562-2.913l-1.513-0.46c-0.51-0.133-1.039-0.179-1.56-0.279
				l-0.786-0.15l-0.797-0.041c-0.533-0.02-1.07-0.053-1.612-0.094c2.126-0.314,4.364-0.318,6.491,0.288
				c2.121,0.578,4.133,1.561,5.922,2.837c1.767,1.305,3.364,2.823,4.723,4.527C297.493,335.41,298.7,337.234,299.562,339.222z"/>
		</g>
		<g>
			<path style="fill:#4F66D0;" d="M248.893,326.433c1.736-1.295,3.691-2.277,5.714-3.077c2.026-0.802,4.167-1.324,6.349-1.577
				c2.187-0.218,4.421-0.069,6.549,0.484c2.146,0.532,4.086,1.649,5.774,2.979c-0.491-0.234-0.973-0.473-1.445-0.721l-0.712-0.361
				l-0.756-0.261c-0.502-0.173-0.983-0.396-1.492-0.534l-1.542-0.353c-2.071-0.353-4.178-0.469-6.274-0.24
				c-2.095,0.219-4.162,0.695-6.197,1.306c-1.02,0.302-2.025,0.662-3.013,1.069C250.84,325.518,249.867,325.967,248.893,326.433z"/>
		</g>
		<g>
			<path style="fill:#4F66D0;" d="M273.156,352.693c-1.125-1.851-1.916-3.89-2.521-5.98c-0.606-2.093-0.923-4.274-0.968-6.47
				c-0.009-2.198,0.351-4.407,1.104-6.473c0.733-2.086,2.029-3.911,3.514-5.465c-0.28,0.467-0.563,0.924-0.855,1.37l-0.426,0.674
				l-0.332,0.728c-0.22,0.483-0.487,0.941-0.673,1.435l-0.498,1.501c-0.548,2.028-0.864,4.114-0.834,6.223
				c0.02,2.106,0.297,4.209,0.712,6.293c0.204,1.043,0.467,2.079,0.778,3.101C272.43,350.668,272.784,351.679,273.156,352.693z"/>
		</g>
	</g>
	<path style="fill:#A2AEE6;" d="M264.188,465.416H207.25V349.218c0-11.057,8.963-20.02,20.02-20.02h36.917V465.416z"/>
	<path style="fill:#C0D6F2;" d="M304.549,465.416h-40.361V329.198h20.341c11.057,0,20.02,8.963,20.02,20.02v29.905l161.852-1.107
		l-0.048-48.819h16.377c11.057,0,20.02,8.963,20.02,20.02v116.198H304.549z"/>
	<g>
		<circle style="fill:#FFBA55;" cx="414.318" cy="145.324" r="28.034"/>
		<circle style="fill:none;stroke:#D77F4A;stroke-miterlimit:10;" cx="414.318" cy="145.324" r="28.034"/>
		<path style="fill:#9857BD;" d="M424.638,145.324"/>
		
			<line style="fill:none;stroke:#D77F4A;stroke-linecap:round;stroke-linejoin:round;stroke-miterlimit:10;" x1="414.318" y1="129.247" x2="414.318" y2="147.324"/>
		
			<line style="fill:none;stroke:#D77F4A;stroke-linecap:round;stroke-linejoin:round;stroke-miterlimit:10;" x1="411.115" y1="141.658" x2="429.872" y2="151.065"/>
	</g>
	<g>
		<path style="fill:#F9977A;" d="M401.139,441.108c0,0-1.027,19.717,0.581,20.234c1.608,0.517,41.154,1.033,33.768-1.919
			l-12.2-4.148c-4.358-1.482-7.446-5.376-7.895-9.957l-0.653-6.66L401.139,441.108z"/>
		<path style="fill:#FFBA55;" d="M441.08,463.13v-0.078c0-1.222-0.689-2.34-1.78-2.89l-21.705-11.643
			c-0.466-0.235-1.034-0.102-1.348,0.315l-8.075,6.01c-0.332,0.442-0.944,0.561-1.418,0.277l-5.3-3.18
			c-0.719-0.431-1.634,0.087-1.634,0.925v10.264c0,0.596,0.483,1.079,1.079,1.079h39.102
			C440.597,464.209,441.08,463.726,441.08,463.13z"/>
		<path style="fill:#FFBA55;" d="M323.44,273.195c0,0-13.917,0.775-23.828,13.605c-3.012,3.899-5.709,8.048-6.437,12.92
			c-0.753,5.04-1.127,12.697,0.511,22.898c0.147,0.913,1.018,1.53,1.926,1.355l18.763-3.608l0.981,32.572
			c0,0,42.971,22.369,60.042-3.139l-10.883-42.647l12.872-0.746c1.103-0.064,1.826-1.181,1.434-2.213l-5.726-15.07
			c-3.155-8.304-10.469-14.427-19.253-15.752c-0.264-0.04-0.525-0.075-0.784-0.107l-11.213-1.362L323.44,273.195z"/>
		<g>
			<g>
				<path style="fill:#E6952A;" d="M314.375,320.364c-0.319-1.561-0.578-3.129-0.828-4.698c-0.252-1.569-0.455-3.145-0.684-4.717
					c-0.186-1.578-0.395-3.153-0.559-4.734c-0.164-1.581-0.319-3.163-0.414-4.753c0.319,1.56,0.579,3.129,0.829,4.698
					c0.25,1.569,0.455,3.145,0.683,4.717c0.185,1.578,0.396,3.153,0.558,4.734C314.125,317.192,314.279,318.774,314.375,320.364z"/>
			</g>
			<g>
				<path style="fill:#E6952A;" d="M364.018,305.844c-0.42-1.388-0.783-2.788-1.136-4.19c-0.354-1.402-0.661-2.815-0.994-4.221
					c-0.29-1.416-0.603-2.828-0.871-4.248c-0.268-1.421-0.527-2.844-0.727-4.28c0.421,1.387,0.783,2.788,1.137,4.19
					c0.353,1.402,0.662,2.814,0.993,4.222c0.288,1.417,0.603,2.827,0.87,4.249C363.558,302.985,363.817,304.408,364.018,305.844z"/>
			</g>
			<g>
				<path style="fill:#E6952A;" d="M334.921,345.414c2.093-0.433,4.068-1.266,5.946-2.24c1.874-0.989,3.648-2.16,5.305-3.479
					c1.673-1.302,3.21-2.771,4.672-4.312c0.748-0.756,1.408-1.592,2.12-2.384l2.003-2.497c-0.583,0.895-1.181,1.783-1.792,2.662
					c-0.674,0.831-1.303,1.703-2.02,2.501c-0.713,0.802-1.435,1.598-2.229,2.323c-0.76,0.761-1.588,1.447-2.416,2.135
					c-1.709,1.303-3.511,2.501-5.456,3.426C339.111,344.457,337.057,345.203,334.921,345.414z"/>
			</g>
			<g>
				<path style="fill:#E6952A;" d="M338.086,351.494c1.449-0.503,2.876-1.063,4.294-1.641c1.423-0.565,2.837-1.152,4.235-1.774
					c2.801-1.229,5.571-2.536,8.235-4.032c2.685-1.452,5.299-3.053,7.705-4.927l0.914-0.688l0.858-0.754
					c0.561-0.515,1.177-0.977,1.673-1.557c0.515-0.56,1.081-1.082,1.557-1.678l1.366-1.847c-1.515,2.687-3.732,4.908-6.109,6.854
					c-2.38,1.965-5.02,3.577-7.703,5.076c-2.704,1.467-5.485,2.788-8.333,3.939C343.933,349.621,341.038,350.655,338.086,351.494z"
					/>
			</g>
		</g>
		<path style="fill:#376F92;" d="M342.499,360.065c0,0,51.016-19.36,63.574-9.157c12.256,9.958,8.528,16.816,12.669,87.115
			c0.169,2.872-2.113,5.302-4.991,5.302h-12.784c-2.298,0-4.3-1.566-4.853-3.797l-12.986-57.474c0,0-11.777,0.938-37.229-3.937
			L342.499,360.065z"/>
		<path style="fill:none;stroke:#161819;stroke-miterlimit:10;" d="M340.878,312.568c3.706,2.237,9.76,6.546,14.88,13.92
			c6.023,8.675,7.529,16.948,8.16,20.64c1.56,9.127,0.347,16.138-1.793,27.879c-2.442,13.397-4.05,13.147-5.407,22.521
			c-1.273,8.796-3.01,20.789,1.92,32.16c6.413,14.792,21.389,21.148,29.28,24.48c16.552,6.989,26.286,4.148,59.52,7.2
			c13.603,1.249,24.628,2.888,31.68,4.048"/>
		<path style="fill:#F9977A;" d="M335.946,421.402c0,0,10.571,21.148,9.102,22.297s-44.232,15.663-37.705,9.787l11.059-8.953
			c3.95-3.198,5.664-8.411,4.382-13.33l-1.864-7.15L335.946,421.402z"/>
		<path style="fill:#161819;" d="M360.895,321.918l-0.471-6.257l0.113-0.023l-0.519-5.591c-0.821-4.33-5.328-6.567-9.536-5.72
			l-19.927,4.009c-4.208,0.847-6.954,5.043-6.133,9.372l0.949,5.005l1.895,6.293c0.404,1.342,2.137,1.608,2.905,0.445l5.863-8.883
			l14.14-2.845l8.182,5.712C359.485,324.225,361,323.319,360.895,321.918z"/>
		<g>
			<g>
				<path style="fill:#10394F;" d="M351.682,372.713c0.01-1.208,0.184-2.435,0.581-3.596c0.39-1.159,0.922-2.276,1.59-3.302
					c0.671-1.023,1.43-1.987,2.287-2.854c0.855-0.866,1.774-1.673,2.798-2.325c-1.756,1.662-3.334,3.474-4.627,5.473
					c-0.661,0.991-1.185,2.06-1.656,3.151C352.189,370.361,351.917,371.523,351.682,372.713z"/>
			</g>
			<g>
				<path style="fill:#10394F;" d="M354.967,360.313c-0.72,0.737-1.251,1.615-1.732,2.505c-0.469,0.899-0.891,1.823-1.243,2.777
					c-0.38,0.943-0.677,1.919-1,2.889l-0.868,2.957c0.041-0.515,0.116-1.025,0.173-1.541l0.29-1.524
					c0.231-1.009,0.52-2.008,0.897-2.978c0.373-0.969,0.821-1.917,1.391-2.792C353.442,361.739,354.092,360.885,354.967,360.313z"/>
			</g>
		</g>
		<g>
			<g>
				<path style="fill:#10394F;" d="M383.027,382.092c-0.433-1.291-0.705-2.658-0.718-4.04c-0.014-1.377,0.14-2.759,0.445-4.103
					c0.339-1.335,0.769-2.646,1.34-3.895c0.575-1.245,1.239-2.452,2.067-3.541c-0.635,1.207-1.194,2.443-1.681,3.703
					c-0.482,1.261-0.905,2.543-1.196,3.856c-0.342,1.303-0.482,2.643-0.558,3.983C382.654,379.402,382.812,380.742,383.027,382.092z
					"/>
			</g>
			<g>
				<path style="fill:#10394F;" d="M380.059,368.729c-0.182,1.147-0.091,2.303,0.056,3.437c0.163,1.134,0.391,2.259,0.702,3.364
					c0.281,1.114,0.659,2.201,1.014,3.299l1.196,3.263c-0.298-0.5-0.564-1.017-0.849-1.527l-0.738-1.585
					c-0.453-1.075-0.851-2.177-1.149-3.31c-0.303-1.13-0.524-2.29-0.591-3.464C379.636,371.041,379.655,369.833,380.059,368.729z"/>
			</g>
		</g>
		<path style="fill:#F9977A;" d="M296.69,323.765l1.167,18.393c0.54,7.38,2,12.928,6.75,11.43l10.705-2.094l-2.18-30.891
			L296.69,323.765z"/>
		<path style="fill:#F9977A;" d="M300.902,352.478l-1.869-12.741l14.099-20.551c0,0,9.565-14.128,21.788-11.773
			c0,0,2.354,1.16-8.279,4.709l7.603,2.363c1.826,0.567,3.102,2.238,3.125,4.149c0.028,2.277-0.793,5.131-4.551,6.634l-5.291-0.392
			c0,0-3.145,10.727-9.326,7.718c0,0-0.774,14.318-2.889,18.899L300.902,352.478z"/>
		<path style="fill:#F9977A;" d="M377.093,306.403l-12.872,0.746c-2.001-1.832-5.907-3.289-8.488-4.108
			c-1.491-0.473-3.049-0.67-4.612-0.602c-2.724,0.118-3.883-0.075-5.277-0.535c-1.038-0.342-2.225-0.092-2.95,0.725
			c-1.367,1.541,0.031,3.215,0.031,3.215c16.695-2.355,14.912,2.158,14.912,2.158c0,1.754-6.606,4.673-9.083,5.706
			c-0.591,0.247-0.979,0.834-0.968,1.474c0.15,9.115,14.074,6.718,14.074,6.718c1.472,5.854,10.179,16.057,10.179,16.057
			c6.274,5.784,9.647-0.205,11.329-5.804c1.213-4.037,0.847-8.383-0.972-12.186L377.093,306.403z"/>
		<g>
			<path style="fill:#DD765E;" d="M327.325,316.953c1.69,0.175,3.365,0.441,5.041,0.7c1.671,0.287,3.344,0.567,5.002,0.939
				c-1.69-0.174-3.365-0.441-5.041-0.7C330.656,317.605,328.983,317.325,327.325,316.953z"/>
		</g>
		<g>
			<path style="fill:#DD765E;" d="M328.699,320.364c1.35,0.158,2.683,0.407,4.018,0.65c1.329,0.27,2.659,0.532,3.972,0.887
				c-1.351-0.157-2.684-0.407-4.018-0.65C331.342,320.981,330.012,320.718,328.699,320.364z"/>
		</g>
		<g>
			<path style="fill:#DD765E;" d="M328.699,322.718c0.992,0.184,1.959,0.457,2.927,0.724c0.961,0.293,1.923,0.579,2.86,0.956
				c-0.993-0.183-1.959-0.457-2.927-0.723C330.598,323.381,329.636,323.094,328.699,322.718z"/>
		</g>
		<g>
			<path style="fill:#DD765E;" d="M348.312,316.953c1.535-0.702,3.104-1.317,4.67-1.939c1.576-0.596,3.15-1.199,4.757-1.714
				c-1.535,0.703-3.104,1.317-4.67,1.939C351.493,315.835,349.919,316.438,348.312,316.953z"/>
		</g>
		<g>
			<path style="fill:#DD765E;" d="M350.124,319.895c1.233-0.583,2.5-1.08,3.764-1.583c1.274-0.477,2.546-0.961,3.851-1.358
				c-1.233,0.584-2.5,1.08-3.764,1.583C352.7,319.014,351.429,319.498,350.124,319.895z"/>
		</g>
		<g>
			<path style="fill:#DD765E;" d="M353.931,321.713c0.809-0.321,1.641-0.553,2.472-0.791c0.838-0.211,1.674-0.43,2.535-0.558
				c-0.808,0.322-1.641,0.553-2.472,0.791C355.628,321.366,354.792,321.584,353.931,321.713z"/>
		</g>
		<g>
			<path style="fill:#DD765E;" d="M364.515,307.149c1.706,1.411,3.372,2.865,5.031,4.326l4.933,4.433l4.848,4.526
				c1.6,1.526,3.195,3.058,4.748,4.635c-1.706-1.41-3.372-2.865-5.032-4.326l-4.932-4.434l-4.847-4.527
				C367.663,310.257,366.069,308.725,364.515,307.149z"/>
		</g>
		<g>
			<path style="fill:#DD765E;" d="M299.033,339.737c0.989-1.64,2.027-3.247,3.073-4.848c1.045-1.602,2.13-3.176,3.193-4.766
				l3.297-4.694c1.118-1.552,2.243-3.099,3.418-4.611c-0.988,1.641-2.027,3.247-3.072,4.848l-3.193,4.765
				c-1.1,1.564-2.179,3.143-3.297,4.694C301.332,336.677,300.207,338.224,299.033,339.737z"/>
		</g>
		<path style="fill:#F9977A;" d="M324.487,261.654l-3.601,11.506c0,0,9.095,12.957,19.789,17.632
			c1.18,0.516,2.601,0.295,3.445-0.678c0.931-1.073,0.444-2.155-0.481-3.648c-1.442-2.328-1.803-5.167-0.945-7.768l0.886-2.688
			l-14.308-20.753L324.487,261.654z"/>
		<path style="fill:#DD765E;" d="M329.272,255.258c0,0-0.453,4.386-0.42,4.869c0.812,11.717,5.793,23.069,13.456,22.538
			c0.049-0.003-0.003-2.453,0.046-2.457c0.076-0.517,0.183-1.032,0.35-1.537l0.877-2.66L329.272,255.258z"/>
		<path style="fill:#F9977A;" d="M356.347,255.214c0.812,11.717-4.742,21.646-12.405,22.176
			c-7.663,0.531-14.533-8.537-15.345-20.254c-0.812-11.717,4.912-20.485,12.405-22.177
			C349.315,233.084,355.536,243.497,356.347,255.214z"/>
		<path style="fill:#F9977A;" d="M332.172,250.264c0.934,3.601,0.08,6.938-1.909,7.454c-1.988,0.516-4.357-1.985-5.291-5.586
			c-0.934-3.601-2.034-7.071-0.046-7.587C326.915,244.03,331.238,246.664,332.172,250.264z"/>
		
			<ellipse transform="matrix(0.9889 -0.1485 0.1485 0.9889 -33.4081 53.5275)" style="fill:#212121;" cx="341.719" cy="250.467" rx="1.333" ry="1.697"/>
		
			<ellipse transform="matrix(0.9889 -0.1485 0.1485 0.9889 -33.2844 55.2811)" style="fill:#212121;" cx="353.523" cy="250.515" rx="1.333" ry="1.697"/>
		<g>
			<path style="fill:#212121;" d="M337.936,247.826c-0.211,0.051-0.441-0.024-0.579-0.209c-0.185-0.247-0.134-0.598,0.113-0.783
				c0.162-0.121,4.001-2.951,7.244-2.096c0.299,0.079,0.477,0.385,0.398,0.683c-0.078,0.299-0.385,0.478-0.683,0.398
				c-2.728-0.718-6.254,1.884-6.289,1.911C338.077,247.777,338.008,247.809,337.936,247.826z"/>
		</g>
		<g>
			<path style="fill:#212121;" d="M356.687,247.867c-0.223,0.054-0.466-0.035-0.599-0.238c-1.9-2.903-4.796-1.669-4.916-1.614
				c-0.279,0.124-0.613-0.003-0.737-0.286c-0.125-0.283,0.003-0.613,0.286-0.737c0.039-0.017,3.89-1.662,6.303,2.025
				c0.169,0.258,0.097,0.605-0.162,0.774C356.806,247.827,356.747,247.852,356.687,247.867z"/>
		</g>
		<g>
			<path style="fill:#DD765E;" d="M348.366,248.831c-0.077,1.24,0.151,2.436,0.672,3.495c0.55,1.094,1.034,2.199,1.779,3.109
				l0.577,0.714c0.211,0.237,0.436,0.698,0.389,1.09c-0.072,0.813-0.572,1.361-1.105,1.762c-1.162,0.811-2.577,0.671-3.726,0.294
				c1.212,0.093,2.512-0.055,3.349-0.775c0.396-0.365,0.757-0.862,0.741-1.305c-0.002-0.232-0.063-0.363-0.248-0.591
				c-0.18-0.218-0.4-0.459-0.595-0.709c-0.805-1.017-1.286-2.207-1.724-3.356C348.004,251.365,347.986,250.006,348.366,248.831z"/>
		</g>
		<g>
			<path style="fill:#212121;" d="M337.447,250.838c0.332-0.625,0.853-1.142,1.444-1.546c0.592-0.406,1.269-0.704,1.979-0.854
				c0.71-0.13,1.444-0.192,2.15-0.054c0.708,0.099,1.382,0.353,1.993,0.695c-0.706-0.046-1.372-0.128-2.038-0.115
				c-0.663-0.015-1.312,0.076-1.946,0.202c-0.639,0.12-1.248,0.356-1.847,0.628C338.585,250.076,338.009,250.42,337.447,250.838z"/>
		</g>
		<g>
			<path style="fill:#212121;" d="M349.529,249.671c0.5-0.501,1.151-0.842,1.834-1.055c0.685-0.214,1.42-0.301,2.142-0.237
				c0.717,0.084,1.437,0.239,2.071,0.578c0.648,0.303,1.218,0.743,1.701,1.248c-0.662-0.251-1.274-0.525-1.914-0.707
				c-0.629-0.209-1.277-0.312-1.92-0.377c-0.646-0.072-1.298-0.025-1.95,0.059C350.84,249.276,350.19,249.436,349.529,249.671z"/>
		</g>
		<path style="fill:#212121;" d="M334.843,247.121c-0.827,2.972-1.82,7.197-1.306,8.803l-2.72-0.705c0,0,0.102-6.8-1.021-8.656
			c-0.456-0.753-3.409-2.221-4.552-0.063c-1.143,2.158,0.781,9.728,2.867,10.731c0,0-3.782,6.355-4.166,6.158
			c-0.385-0.197-2.263-12.705-2.263-12.705s-12.334-13.402,4.456-19.62c0,0-1.319-6.206,12.983-4.286c0,0,5.139-9.645,6.012,0.002
			c0,0,12.831-9.323,9.267,3.567c0,0,11.336,4.272-1.332,12.296c0,0-3.707-1.465-6.05-2.797c-2.321-1.319-5.051-1.818-7.635-1.149
			c-1.98,0.512-3.717,1.604-3.762,3.851C335.591,244.096,335.259,245.626,334.843,247.121z"/>
		<path style="fill:#77312A;" d="M341.995,261.504c0,0,5.261,10.035,9.837,3.526"/>
		<path style="fill:#376F92;" d="M322.106,430.314l16.519-0.745c1.961-0.088,3.31-2.005,2.732-3.881l-14.031-45.478l18.575-2.093
			l-3.401-18.052c0,0-16.828-12.027-41.598-7.587c-27.223,4.88,3.79,41.241,18.302,75.983
			C319.691,429.628,320.842,430.371,322.106,430.314z"/>
		<g>
			<g>
				<path style="fill:#10394F;" d="M327.325,380.21c-0.241-1.189-0.521-2.35-0.993-3.447c-0.478-1.088-1.007-2.154-1.674-3.142
					c-1.304-1.992-2.893-3.795-4.658-5.446c1.028,0.646,1.951,1.448,2.812,2.309c0.862,0.861,1.626,1.822,2.304,2.84
					c0.674,1.022,1.212,2.136,1.609,3.293C327.127,377.776,327.309,379.001,327.325,380.21z"/>
			</g>
			<g>
				<path style="fill:#10394F;" d="M325.756,368.175c0.682,0.792,1.07,1.793,1.374,2.783c0.305,0.999,0.473,2.034,0.563,3.068
					c0.093,1.036,0.094,2.076,0.037,3.11l-0.144,1.545c-0.088,0.511-0.156,1.022-0.26,1.528l-0.015-3.082
					c-0.042-1.022-0.056-2.041-0.16-3.053c-0.075-1.014-0.224-2.019-0.425-3.013C326.51,370.073,326.244,369.083,325.756,368.175z"
					/>
			</g>
		</g>
		<g>
			<g>
				<path style="fill:#10394F;" d="M339.257,374.319c-0.378-1.153-0.79-2.273-1.386-3.308c-0.601-1.026-1.251-2.023-2.028-2.926
					c-1.527-1.827-3.314-3.433-5.259-4.869c1.096,0.523,2.106,1.212,3.061,1.967c0.957,0.755,1.827,1.62,2.618,2.553
					c0.788,0.937,1.452,1.981,1.98,3.084C338.777,371.925,339.1,373.121,339.257,374.319z"/>
			</g>
			<g>
				<path style="fill:#10394F;" d="M334.486,362.412c0.938,0.46,1.688,1.229,2.356,2.021c0.672,0.799,1.233,1.685,1.721,2.602
					c0.492,0.917,0.9,1.873,1.253,2.846l0.473,1.478c0.12,0.504,0.257,1.002,0.36,1.508l-1.222-2.829
					c-0.439-0.924-0.852-1.855-1.344-2.746c-0.466-0.904-0.998-1.77-1.572-2.605C335.925,363.862,335.291,363.056,334.486,362.412z"
					/>
			</g>
		</g>
		
			<rect x="341.588" y="304.151" transform="matrix(0.9824 -0.1866 0.1866 0.9824 -50.8623 69.5472)" style="fill:#161819;" width="4.949" height="1.693"/>
		
			<rect x="335.601" y="305.232" transform="matrix(0.9824 -0.1866 0.1866 0.9824 -51.1692 68.4491)" style="fill:#161819;" width="4.949" height="1.693"/>
		<g>
			<path style="fill:#10394F;" d="M293.838,371.442c2.271-0.388,4.114-1.672,5.366-3.404c0.672-0.842,1.11-1.852,1.585-2.847
				l0.596-1.564c0.17-0.536,0.339-1.076,0.553-1.618c0.005,0.574-0.035,1.149-0.075,1.729c-0.092,0.569-0.2,1.142-0.337,1.708
				c-0.348,1.111-0.784,2.229-1.518,3.185c-0.716,0.953-1.637,1.788-2.729,2.295C296.201,371.436,294.978,371.669,293.838,371.442z"
				/>
		</g>
		<g>
			<path style="fill:#10394F;" d="M396.078,360.636c0.66,1.901,1.441,3.741,2.341,5.5c0.922,1.738,1.99,3.419,3.406,4.694
				c1.384,1.293,3.236,2.035,5.126,1.725c1.882-0.277,3.675-1.255,5.327-2.387c-1.402,1.422-3.107,2.701-5.194,3.156
				c-1.031,0.243-2.153,0.194-3.185-0.131c-1.034-0.328-1.955-0.92-2.742-1.619c-1.558-1.434-2.632-3.24-3.441-5.104
				C396.909,364.599,396.363,362.632,396.078,360.636z"/>
		</g>
		<path style="fill:#FFBA55;" d="M305.931,456.275l-0.023-0.07c-0.366-1.094-0.038-2.317,0.848-3.161l17.406-17.417
			c0.379-0.361,0.965-0.425,1.392-0.152l9.574,2.781c0.452,0.289,1.077,0.199,1.448-0.209l4.15-4.555
			c0.563-0.618,1.599-0.449,1.85,0.302l3.075,9.191c0.179,0.534-0.142,1.122-0.715,1.314l-37.641,12.595
			C306.719,457.086,306.109,456.809,305.931,456.275z"/>
	</g>
	<path style="fill:#C0D6F2;" d="M304.549,433.278h-40.361v-104.08h20.341c11.057,0,20.02,6.849,20.02,15.297v22.85V433.278z"/>
	<g>
		<g>
			<g>
				<path style="fill:#8B9D36;" d="M164.664,438.758c-0.374-0.737-37.379-74.073-35.084-103.573l-1.237-0.095
					c-2.322,29.846,33.68,101.207,35.214,104.23L164.664,438.758z"/>
			</g>
			<path style="fill:#8B9D36;" d="M129,336.802c0.99-1.87,1.371-3.639,1.567-5.376c0.172-1.734,0.104-3.428-0.169-5.087
				c-0.272-1.66-0.758-3.284-1.483-4.868c-0.008-0.016-0.015-0.032-0.023-0.048c-1.076-2.264-4.498-1.693-4.781,0.797
				c-0.002,0.018-0.004,0.035-0.006,0.053c-0.172,1.734-0.104,3.427,0.177,5.086c0.28,1.658,0.765,3.282,1.491,4.866
				C126.522,333.805,127.456,335.354,129,336.802z"/>
			<path style="fill:#8B9D36;" d="M131.532,355.721c2.113-0.227,3.804-1.186,5.25-2.366c1.429-1.206,2.581-2.727,3.385-4.448
				c0.817-1.712,1.192-3.686,1.098-5.636c-0.001-0.021-0.002-0.043-0.004-0.064c-0.146-2.471-3.506-3.138-4.697-0.968
				c-0.034,0.062-0.068,0.123-0.102,0.185c-0.724,1.329-1.313,2.585-1.932,3.899c-0.608,1.31-1.165,2.681-1.69,4.19
				C132.323,352.037,131.851,353.651,131.532,355.721z"/>
			<path style="fill:#8B9D36;" d="M129.275,343.825c2.113-0.227,3.804-1.186,5.25-2.366c1.429-1.206,2.581-2.727,3.385-4.448
				c0.817-1.712,1.192-3.686,1.098-5.636c-0.001-0.021-0.002-0.043-0.004-0.064c-0.146-2.471-3.506-3.138-4.697-0.968
				c-0.034,0.062-0.068,0.123-0.102,0.185c-0.724,1.329-1.313,2.585-1.932,3.899c-0.608,1.31-1.165,2.681-1.69,4.19
				C130.067,340.14,129.595,341.754,129.275,343.825z"/>
			<path style="fill:#8B9D36;" d="M129.622,347.09c-0.253-2.154-0.958-3.886-1.8-5.49c-0.859-1.588-1.897-3.01-3.086-4.29
				c-1.188-1.281-2.536-2.414-4.06-3.381c-0.033-0.02-0.065-0.04-0.098-0.06c-2.14-1.309-4.678,1.06-3.521,3.285
				c0.018,0.034,0.036,0.068,0.053,0.102c0.86,1.588,1.897,3.01,3.093,4.284c1.195,1.275,2.542,2.408,4.066,3.376
				C125.812,345.866,127.491,346.689,129.622,347.09z"/>
			<path style="fill:#8B9D36;" d="M136.229,371.788c1.857-1.124,3.142-2.485,4.255-3.918c1.09-1.442,1.956-2.977,2.629-4.591
				c0.675-1.614,1.148-3.312,1.399-5.102c0.008-0.066,0.017-0.132,0.024-0.198c0.295-2.467-2.869-3.779-4.406-1.827
				c-0.041,0.052-0.082,0.105-0.123,0.157c-1.09,1.442-1.956,2.977-2.621,4.595c-0.667,1.618-1.141,3.315-1.391,5.105
				C135.767,367.809,135.712,369.68,136.229,371.788z"/>
			<path style="fill:#8B9D36;" d="M140.919,386.042c1.875-1.282,3.175-2.787,4.3-4.36c1.102-1.582,1.978-3.252,2.659-4.997
				c0.682-1.745,1.163-3.568,1.417-5.479c0.007-0.055,0.013-0.111,0.02-0.167c0.29-2.514-2.986-3.786-4.468-1.735
				c-0.033,0.045-0.065,0.091-0.098,0.136c-1.101,1.582-1.977,3.252-2.651,5c-0.675,1.748-1.155,3.571-1.41,5.482
				C140.457,381.843,140.4,383.831,140.919,386.042z"/>
			<path style="fill:#8B9D36;" d="M146.165,399.058c2.037-1.293,3.515-2.851,4.825-4.49c1.287-1.649,2.355-3.402,3.235-5.245
				c0.882-1.842,1.566-3.778,2.033-5.817c0.009-0.042,0.018-0.083,0.027-0.125c0.54-2.529-2.732-4.084-4.352-2.068
				c-0.027,0.033-0.053,0.066-0.08,0.1c-1.287,1.649-2.355,3.402-3.228,5.249c-0.874,1.846-1.559,3.781-2.025,5.821
				C146.157,394.532,145.882,396.662,146.165,399.058z"/>
			<path style="fill:#8B9D36;" d="M151.445,412.107c2.089-1.227,3.629-2.74,5.004-4.339c1.353-1.611,2.49-3.333,3.443-5.153
				c0.954-1.819,1.716-3.738,2.262-5.769l0,0c0.656-2.564-2.597-4.261-4.324-2.255h0c-1.352,1.611-2.491,3.334-3.436,5.157
				c-0.946,1.822-1.709,3.741-2.255,5.773C151.615,407.563,151.256,409.692,151.445,412.107z"/>
			<path style="fill:#8B9D36;" d="M156.106,422.959c2.26-1.14,4.001-2.615,5.584-4.191c1.563-1.589,2.921-3.31,4.104-5.143
				c1.185-1.833,2.186-3.783,2.984-5.864l0,0c0.929-2.509-2.205-4.525-4.102-2.638l0,0c-1.563,1.59-2.921,3.31-4.097,5.148
				c-1.177,1.837-2.179,3.787-2.977,5.868C156.825,418.234,156.205,420.43,156.106,422.959z"/>
			<path style="fill:#8B9D36;" d="M161.91,434.722c2.151-1.472,3.746-3.216,5.174-5.042c1.406-1.837,2.593-3.781,3.593-5.816
				c1.001-2.035,1.808-4.165,2.396-6.401l0,0c0.658-2.612-2.721-4.266-4.38-2.144l0,0c-1.405,1.837-2.593,3.781-3.585,5.82
				c-0.994,2.038-1.8,4.168-2.389,6.405C162.152,429.79,161.753,432.12,161.91,434.722z"/>
			<path style="fill:#8B9D36;" d="M132.813,361.679c-0.636-2.273-1.681-4.082-2.85-5.75c-1.185-1.65-2.53-3.118-4.013-4.43
				c-1.482-1.313-3.108-2.462-4.893-3.431c-0.042-0.022-0.084-0.044-0.126-0.066c-2.275-1.188-4.645,1.501-3.18,3.609
				c0.027,0.039,0.054,0.078,0.081,0.116c1.185,1.65,2.53,3.118,4.019,4.423c1.487,1.306,3.113,2.457,4.899,3.424
				C128.552,360.525,130.478,361.334,132.813,361.679z"/>
			<path style="fill:#8B9D36;" d="M136.98,375.245c-0.724-2.078-1.803-3.65-2.99-5.07c-1.201-1.399-2.541-2.599-4.002-3.629
				c-1.459-1.031-3.043-1.884-4.767-2.539c-0.017-0.006-0.035-0.013-0.052-0.019c-2.384-0.868-4.412,2.019-2.786,3.967
				c0.012,0.014,0.024,0.028,0.036,0.043c1.201,1.399,2.541,2.599,4.006,3.622c1.464,1.024,3.048,1.878,4.772,2.533
				C132.935,374.788,134.78,375.27,136.98,375.245z"/>
			<path style="fill:#8B9D36;" d="M141.503,388.104c-1.12-2.02-2.523-3.49-4.012-4.794c-1.5-1.282-3.11-2.348-4.816-3.228
				c-1.705-0.882-3.51-1.57-5.425-2.043h0c-2.546-0.592-4.192,2.612-2.229,4.338l0,0c1.5,1.282,3.11,2.348,4.82,3.221
				c1.709,0.874,3.513,1.563,5.429,2.036C137.196,388.085,139.208,388.37,141.503,388.104z"/>
			<path style="fill:#8B9D36;" d="M147.149,401.945c-1.362-1.931-2.955-3.288-4.618-4.472c-1.672-1.161-3.434-2.096-5.273-2.839
				c-1.84-0.743-3.76-1.285-5.77-1.603c-0.047-0.007-0.093-0.014-0.14-0.02c-2.542-0.361-3.878,2.967-1.792,4.464
				c0.038,0.028,0.077,0.055,0.115,0.082c1.672,1.16,3.434,2.097,5.277,2.831c1.843,0.735,3.763,1.278,5.773,1.595
				C142.74,402.277,144.829,402.398,147.149,401.945z"/>
			<path style="fill:#8B9D36;" d="M151.887,413.475c-1.834-1.79-3.819-2.981-5.851-3.991c-2.038-0.986-4.135-1.736-6.284-2.285
				c-2.148-0.55-4.35-0.889-6.611-0.994l0,0c-2.682-0.094-3.601,3.532-1.199,4.727l0,0c2.038,0.985,4.135,1.736,6.286,2.277
				c2.15,0.542,4.352,0.881,6.613,0.986C147.109,414.275,149.422,414.175,151.887,413.475z"/>
			<path style="fill:#8B9D36;" d="M156.591,423.287c-1.827-1.56-3.742-2.509-5.683-3.272c-1.945-0.739-3.924-1.238-5.933-1.53
				c-2.009-0.294-4.049-0.373-6.123-0.212h0c-2.631,0.238-3.152,3.858-0.694,4.827l0,0c1.945,0.738,3.924,1.238,5.935,1.522
				c2.01,0.285,4.05,0.365,6.124,0.203C152.295,424.64,154.399,424.269,156.591,423.287z"/>
			<path style="fill:#8B9D36;" d="M159.975,431.202c-2.292-1.355-4.602-2.092-6.919-2.643c-2.317-0.526-4.642-0.809-6.973-0.883
				c-2.331-0.076-4.668,0.065-7.013,0.448l0,0c-2.666,0.464-2.782,4.249-0.149,4.875h0c2.317,0.525,4.642,0.809,6.973,0.875
				c2.331,0.068,4.668-0.073,7.013-0.456C155.254,433.01,157.605,432.415,159.975,431.202z"/>
			<path style="fill:#8B9D36;" d="M142.411,437.251c-2.497,0.959-1.925,4.645,0.745,4.803l0,0c2.269,0.109,4.501-0.023,6.7-0.361
				c2.199-0.336,4.366-0.887,6.495-1.677c2.126-0.813,4.223-1.814,6.224-3.433c-2.397-0.936-4.699-1.256-6.971-1.387
				c-2.269-0.108-4.5,0.023-6.698,0.369C146.707,435.91,144.54,436.46,142.411,437.251L142.411,437.251z"/>
			<path style="fill:#8B9D36;" d="M128.421,331.889"/>
		</g>
		<g>
			<g>
				<path style="fill:#5F7D37;" d="M146.914,424.451c0.156-0.935,15.437-93.94,2.777-125.442l1.321-0.53
					c12.808,31.872-2.054,122.37-2.694,126.207L146.914,424.451z"/>
			</g>
			<path style="fill:#5F7D37;" d="M150.882,300.578c-1.727-1.706-2.752-3.511-3.564-5.346c-0.785-1.839-1.293-3.716-1.565-5.626
				c-0.273-1.91-0.3-3.855-0.051-5.838c0.003-0.02,0.006-0.04,0.008-0.061c0.399-2.848,4.341-3.4,5.508-0.772
				c0.008,0.019,0.017,0.037,0.025,0.056c0.784,1.839,1.293,3.716,1.556,5.628c0.264,1.912,0.291,3.856,0.042,5.84
				C152.563,296.445,152.074,298.462,150.882,300.578z"/>
			<path style="fill:#5F7D37;" d="M154.618,322.159c-2.391,0.478-4.572,0.011-6.561-0.783c-1.979-0.828-3.763-2.097-5.235-3.705
				c-1.483-1.593-2.573-3.625-3.141-5.792c-0.006-0.024-0.012-0.048-0.018-0.072c-0.69-2.755,2.759-4.641,4.808-2.676
				c0.058,0.056,0.117,0.112,0.175,0.167c1.25,1.206,2.327,2.378,3.456,3.604c1.116,1.225,2.197,2.534,3.291,4.005
				C152.485,318.398,153.557,320.002,154.618,322.159z"/>
			<path style="fill:#5F7D37;" d="M152.997,308.361c-2.391,0.478-4.572,0.011-6.561-0.783c-1.979-0.828-3.763-2.097-5.235-3.705
				c-1.483-1.593-2.573-3.625-3.141-5.792c-0.006-0.024-0.012-0.048-0.018-0.072c-0.69-2.755,2.759-4.641,4.808-2.676
				c0.058,0.056,0.117,0.112,0.175,0.167c1.25,1.206,2.327,2.378,3.456,3.604c1.116,1.225,2.197,2.534,3.291,4.005
				C150.863,304.6,151.935,306.204,152.997,308.361z"/>
			<path style="fill:#5F7D37;" d="M153.74,312.054c-0.464-2.445-0.288-4.583,0.081-6.629c0.394-2.034,1.041-3.947,1.903-5.757
				c0.86-1.811,1.945-3.514,3.281-5.098c0.029-0.033,0.058-0.066,0.086-0.099c1.892-2.169,5.485-0.449,4.985,2.385
				c-0.008,0.043-0.015,0.087-0.023,0.13c-0.395,2.034-1.041,3.947-1.912,5.753c-0.869,1.807-1.954,3.51-3.29,5.094
				C157.49,309.403,155.935,310.882,153.74,312.054z"/>
			<path style="fill:#5F7D37;" d="M155.003,341.361c-2.419-0.592-4.294-1.639-6.005-2.825c-1.689-1.203-3.165-2.586-4.457-4.122
				c-1.294-1.535-2.396-3.23-3.286-5.103c-0.032-0.069-0.063-0.139-0.095-0.208c-1.171-2.599,1.841-5.123,4.195-3.516
				c0.063,0.043,0.126,0.086,0.189,0.13c1.689,1.204,3.165,2.586,4.45,4.128c1.287,1.541,2.39,3.236,3.279,5.11
				C154.14,336.847,154.844,338.876,155.003,341.361z"/>
			<path style="fill:#5F7D37;" d="M154.772,358.578c-2.494-0.758-4.434-1.959-6.206-3.294c-1.75-1.352-3.284-2.879-4.63-4.555
				c-1.347-1.675-2.5-3.506-3.436-5.51c-0.026-0.058-0.053-0.117-0.079-0.176c-1.183-2.652,1.967-5.172,4.295-3.436
				c0.051,0.038,0.103,0.077,0.154,0.116c1.75,1.353,3.283,2.879,4.622,4.561c1.34,1.681,2.493,3.512,3.429,5.516
				C153.834,353.823,154.58,355.979,154.772,358.578z"/>
			<path style="fill:#5F7D37;" d="M153.507,374.63c-2.674-0.715-4.829-1.912-6.826-3.255c-1.976-1.362-3.748-2.914-5.345-4.629
				c-1.599-1.714-3.014-3.597-4.226-5.669c-0.024-0.042-0.048-0.085-0.072-0.128c-1.461-2.583,1.585-5.41,4.052-3.761
				c0.041,0.027,0.081,0.054,0.122,0.082c1.976,1.363,3.749,2.914,5.339,4.635c1.591,1.72,3.007,3.603,4.218,5.675
				C151.959,369.673,152.993,371.91,153.507,374.63z"/>
			<path style="fill:#5F7D37;" d="M152.216,390.73c-2.708-0.624-4.915-1.751-6.97-3.029c-2.035-1.298-3.873-2.792-5.541-4.456
				c-1.67-1.663-3.164-3.501-4.461-5.537l0,0c-1.6-2.581,1.377-5.557,3.957-3.956l0,0c2.034,1.298,3.873,2.792,5.535,4.463
				c1.663,1.669,3.157,3.508,4.454,5.543C150.467,385.815,151.593,388.022,152.216,390.73z"/>
			<path style="fill:#5F7D37;" d="M150.848,404.213c-2.866-0.471-5.279-1.487-7.555-2.667c-2.257-1.202-4.336-2.618-6.262-4.218
				c-1.927-1.599-3.694-3.389-5.283-5.392l0,0c-1.881-2.427,0.857-5.711,3.583-4.298h0c2.258,1.203,4.336,2.618,6.256,4.226
				c1.921,1.606,3.688,3.396,5.277,5.4C148.435,399.287,149.868,401.477,150.848,404.213z"/>
			<path style="fill:#5F7D37;" d="M148.54,419.084c-2.861-0.872-5.207-2.232-7.398-3.74c-2.171-1.527-4.138-3.247-5.933-5.131
				c-1.796-1.883-3.411-3.937-4.825-6.183l0,0c-1.619-2.633,1.511-5.606,4.057-3.853l0,0c2.17,1.528,4.139,3.247,5.926,5.137
				c1.789,1.889,3.405,3.943,4.818,6.19C146.579,413.77,147.817,416.183,148.54,419.084z"/>
			<path style="fill:#5F7D37;" d="M155.266,329.121c-0.086-2.707,0.436-5.046,1.141-7.275c0.729-2.214,1.697-4.283,2.869-6.229
				c1.171-1.947,2.555-3.764,4.177-5.438c0.038-0.039,0.077-0.077,0.115-0.116c2.082-2.083,5.601,0.045,4.722,2.856
				c-0.016,0.052-0.033,0.104-0.049,0.155c-0.73,2.214-1.697,4.284-2.878,6.224c-1.179,1.942-2.563,3.76-4.185,5.434
				C159.532,326.392,157.703,327.94,155.266,329.121z"/>
			<path style="fill:#5F7D37;" d="M155.37,345.405c0.077-2.524,0.718-4.616,1.529-6.578c0.833-1.945,1.888-3.72,3.132-5.349
				c1.243-1.631,2.683-3.11,4.345-4.419c0.017-0.013,0.034-0.026,0.051-0.039c2.311-1.771,5.524,0.693,4.415,3.384
				c-0.008,0.02-0.016,0.039-0.024,0.059c-0.833,1.944-1.888,3.72-3.14,5.343c-1.25,1.625-2.69,3.104-4.352,4.414
				C159.641,343.512,157.788,344.674,155.37,345.405z"/>
			<path style="fill:#5F7D37;" d="M154.843,361.036c0.532-2.597,1.562-4.688,2.742-6.627c1.201-1.919,2.597-3.64,4.161-5.19
				c1.563-1.552,3.302-2.926,5.235-4.103h0c2.583-1.523,5.487,1.418,3.932,3.982l0,0c-1.201,1.919-2.596,3.64-4.168,5.183
				c-1.57,1.545-3.308,2.92-5.242,4.096C159.55,359.533,157.446,360.537,154.843,361.036z"/>
			<path style="fill:#5F7D37;" d="M153.424,378.128c0.827-2.583,2.104-4.616,3.517-6.484c1.43-1.846,3.038-3.476,4.796-4.921
				c1.758-1.446,3.673-2.7,5.764-3.739c0.049-0.024,0.098-0.047,0.146-0.07c2.659-1.27,5.266,1.914,3.497,4.27
				c-0.033,0.043-0.065,0.087-0.098,0.13c-1.431,1.845-3.038,3.476-4.803,4.914c-1.764,1.439-3.679,2.693-5.771,3.731
				C158.364,376.976,156.119,377.827,153.424,378.128z"/>
			<path style="fill:#5F7D37;" d="M152.203,392.379c1.392-2.59,3.155-4.577,5.032-6.381c1.891-1.78,3.93-3.323,6.093-4.662
				c2.163-1.341,4.456-2.469,6.894-3.362l0,0c2.903-1.025,5.157,2.628,2.938,4.763v0c-1.892,1.78-3.929,3.323-6.097,4.654
				c-2.167,1.332-4.461,2.462-6.9,3.354C157.709,391.612,155.142,392.298,152.203,392.379z"/>
			<path style="fill:#5F7D37;" d="M150.428,404.738c1.463-2.336,3.233-4.033,5.095-5.537c1.875-1.478,3.87-2.705,5.969-3.716
				c2.098-1.013,4.304-1.801,6.63-2.338l0,0c2.962-0.645,4.777,3.139,2.42,5.045l0,0c-1.875,1.478-3.87,2.705-5.973,3.707
				c-2.102,1.004-4.308,1.792-6.634,2.329C155.597,404.741,153.166,405.059,150.428,404.738z"/>
			<path style="fill:#5F7D37;" d="M149.447,414.567c2.043-2.272,4.318-3.873,6.664-5.273c2.356-1.373,4.803-2.482,7.329-3.365
				c2.525-0.885,5.132-1.535,7.83-1.922l0,0c3.078-0.409,4.507,3.694,1.84,5.285l0,0c-2.356,1.372-4.803,2.482-7.332,3.356
				c-2.528,0.876-5.135,1.526-7.834,1.913C155.237,414.921,152.459,415.079,149.447,414.567z"/>
			<path style="fill:#5F7D37;" d="M170.754,415.146c3.063,0.191,3.705,4.422,0.837,5.513l0,0c-2.446,0.899-4.934,1.523-7.458,1.91
				c-2.523,0.389-5.084,0.531-7.687,0.399c-2.607-0.159-5.247-0.534-7.994-1.617c2.302-1.849,4.712-2.991,7.154-3.916
				c2.446-0.899,4.934-1.523,7.459-1.901C165.591,415.156,168.151,415.013,170.754,415.146L170.754,415.146z"/>
			<path style="fill:none;" d="M149.826,295.001"/>
		</g>
		<g>
			<g>
				<path style="fill:#C4CE6E;" d="M145.703,443.754c0.307-0.605,30.682-60.801,28.798-85.016l1.015-0.078
					c1.906,24.499-27.646,83.074-28.905,85.555L145.703,443.754z"/>
			</g>
			<path style="fill:#C4CE6E;" d="M174.978,360.065c-0.813-1.535-1.125-2.987-1.286-4.413c-0.142-1.423-0.086-2.813,0.139-4.176
				c0.223-1.362,0.622-2.695,1.217-3.996c0.006-0.013,0.012-0.026,0.019-0.04c0.883-1.858,3.692-1.39,3.924,0.654
				c0.002,0.014,0.003,0.029,0.005,0.043c0.141,1.423,0.086,2.813-0.145,4.174c-0.23,1.361-0.628,2.694-1.224,3.994
				C177.011,357.605,176.245,358.876,174.978,360.065z"/>
			<path style="fill:#C4CE6E;" d="M172.899,375.595c-1.734-0.187-3.122-0.973-4.31-1.942c-1.173-0.99-2.119-2.238-2.778-3.651
				c-0.671-1.405-0.979-3.026-0.901-4.626c0.001-0.018,0.002-0.035,0.003-0.053c0.12-2.028,2.878-2.576,3.855-0.795
				c0.028,0.051,0.056,0.101,0.084,0.152c0.595,1.091,1.078,2.122,1.586,3.201c0.499,1.076,0.956,2.2,1.387,3.439
				C172.25,372.57,172.637,373.895,172.899,375.595z"/>
			<path style="fill:#C4CE6E;" d="M174.752,365.83c-1.734-0.187-3.122-0.973-4.31-1.942c-1.173-0.99-2.119-2.238-2.778-3.651
				c-0.671-1.405-0.979-3.026-0.901-4.626c0.001-0.018,0.002-0.035,0.003-0.053c0.12-2.028,2.878-2.576,3.855-0.795
				c0.028,0.051,0.056,0.101,0.084,0.152c0.595,1.091,1.078,2.122,1.586,3.201c0.499,1.075,0.956,2.2,1.387,3.439
				C174.102,362.805,174.489,364.13,174.752,365.83z"/>
			<path style="fill:#C4CE6E;" d="M174.467,368.51c0.208-1.768,0.786-3.19,1.477-4.507c0.705-1.303,1.557-2.471,2.533-3.521
				c0.975-1.051,2.081-1.981,3.333-2.775c0.027-0.017,0.053-0.033,0.08-0.049c1.756-1.074,3.84,0.87,2.89,2.696
				c-0.015,0.028-0.029,0.056-0.044,0.084c-0.706,1.303-1.557,2.471-2.538,3.516c-0.981,1.047-2.086,1.977-3.337,2.771
				C177.595,367.505,176.216,368.181,174.467,368.51z"/>
			<path style="fill:#C4CE6E;" d="M169.044,388.782c-1.524-0.923-2.579-2.04-3.493-3.216c-0.895-1.184-1.605-2.444-2.158-3.769
				c-0.554-1.325-0.943-2.718-1.148-4.188c-0.007-0.054-0.014-0.108-0.02-0.162c-0.242-2.025,2.355-3.102,3.617-1.5
				c0.034,0.043,0.067,0.086,0.101,0.129c0.894,1.184,1.606,2.443,2.152,3.771c0.548,1.328,0.937,2.721,1.142,4.19
				C169.423,385.516,169.468,387.052,169.044,388.782z"/>
			<path style="fill:#C4CE6E;" d="M165.194,400.483c-1.539-1.052-2.606-2.288-3.529-3.579c-0.905-1.298-1.624-2.669-2.183-4.102
				c-0.56-1.432-0.955-2.929-1.163-4.497c-0.006-0.046-0.011-0.091-0.016-0.137c-0.238-2.063,2.451-3.108,3.668-1.424
				c0.027,0.037,0.054,0.075,0.08,0.112c0.904,1.298,1.623,2.669,2.176,4.104c0.554,1.435,0.948,2.931,1.157,4.5
				C165.573,397.036,165.62,398.668,165.194,400.483z"/>
			<path style="fill:#C4CE6E;" d="M160.888,411.167c-1.672-1.061-2.885-2.341-3.96-3.686c-1.057-1.353-1.933-2.793-2.655-4.305
				c-0.724-1.512-1.285-3.101-1.668-4.775c-0.007-0.034-0.015-0.068-0.022-0.103c-0.443-2.076,2.242-3.352,3.572-1.698
				c0.022,0.027,0.044,0.055,0.066,0.082c1.056,1.354,1.933,2.793,2.649,4.309c0.717,1.515,1.28,3.104,1.662,4.778
				C160.894,407.451,161.12,409.2,160.888,411.167z"/>
			<path style="fill:#C4CE6E;" d="M156.554,421.878c-1.714-1.007-2.979-2.249-4.107-3.562c-1.111-1.322-2.044-2.736-2.826-4.229
				c-0.783-1.493-1.408-3.068-1.857-4.735l0,0c-0.539-2.105,2.131-3.497,3.549-1.851l0,0c1.11,1.322,2.045,2.736,2.82,4.233
				c0.777,1.496,1.402,3.071,1.851,4.738C156.414,418.148,156.709,419.895,156.554,421.878z"/>
			<path style="fill:#C4CE6E;" d="M152.728,430.786c-1.855-0.936-3.284-2.147-4.584-3.441c-1.283-1.304-2.398-2.717-3.369-4.222
				c-0.972-1.504-1.794-3.105-2.449-4.813l0,0c-0.763-2.06,1.81-3.714,3.367-2.165l0,0c1.283,1.305,2.398,2.717,3.363,4.226
				c0.966,1.508,1.789,3.108,2.444,4.817C152.138,426.907,152.647,428.709,152.728,430.786z"/>
			<path style="fill:#C4CE6E;" d="M147.964,440.44c-1.766-1.208-3.075-2.64-4.247-4.139c-1.154-1.508-2.128-3.103-2.949-4.774
				c-0.822-1.67-1.484-3.419-1.967-5.254l0,0c-0.54-2.144,2.234-3.502,3.595-1.76l0,0c1.154,1.508,2.129,3.103,2.943,4.777
				c0.816,1.673,1.478,3.421,1.961,5.258C147.765,436.393,148.093,438.305,147.964,440.44z"/>
			<path style="fill:#C4CE6E;" d="M171.848,380.485c0.522-1.866,1.38-3.35,2.339-4.72c0.972-1.354,2.077-2.559,3.294-3.636
				c1.216-1.078,2.551-2.021,4.017-2.816c0.034-0.018,0.069-0.036,0.103-0.054c1.867-0.975,3.813,1.232,2.61,2.962
				c-0.022,0.032-0.044,0.064-0.067,0.096c-0.973,1.354-2.077,2.56-3.299,3.631c-1.221,1.072-2.555,2.016-4.021,2.811
				C175.345,379.538,173.764,380.202,171.848,380.485z"/>
			<path style="fill:#C4CE6E;" d="M168.427,391.621c0.594-1.706,1.48-2.996,2.454-4.161c0.986-1.148,2.086-2.134,3.285-2.979
				c1.198-0.846,2.498-1.547,3.913-2.084c0.014-0.005,0.029-0.01,0.043-0.016c1.957-0.713,3.622,1.657,2.287,3.257
				c-0.01,0.012-0.019,0.023-0.029,0.035c-0.986,1.148-2.086,2.134-3.289,2.973c-1.202,0.841-2.502,1.541-3.917,2.079
				C171.748,391.245,170.233,391.641,168.427,391.621z"/>
			<path style="fill:#C4CE6E;" d="M164.715,402.176c0.92-1.658,2.071-2.865,3.293-3.935c1.231-1.052,2.553-1.927,3.953-2.65
				c1.4-0.724,2.881-1.289,4.453-1.677l0,0c2.09-0.486,3.441,2.144,1.829,3.561l0,0c-1.231,1.052-2.553,1.927-3.956,2.644
				c-1.403,0.718-2.884,1.283-4.456,1.671C168.25,402.16,166.598,402.393,164.715,402.176z"/>
			<path style="fill:#C4CE6E;" d="M160.08,413.536c1.118-1.585,2.426-2.699,3.791-3.671c1.372-0.953,2.819-1.721,4.329-2.33
				c1.51-0.61,3.086-1.055,4.736-1.315c0.038-0.006,0.077-0.011,0.115-0.017c2.087-0.296,3.183,2.436,1.471,3.664
				c-0.031,0.023-0.063,0.045-0.095,0.068c-1.372,0.953-2.819,1.721-4.331,2.324c-1.513,0.604-3.088,1.049-4.739,1.309
				C163.699,413.809,161.984,413.908,160.08,413.536z"/>
			<path style="fill:#C4CE6E;" d="M156.191,423c1.505-1.469,3.135-2.447,4.803-3.276c1.672-0.809,3.394-1.425,5.158-1.875
				c1.763-0.451,3.571-0.73,5.426-0.816l0,0c2.201-0.077,2.956,2.899,0.984,3.88h0c-1.673,0.809-3.394,1.425-5.159,1.869
				c-1.765,0.445-3.572,0.723-5.428,0.809C160.113,423.657,158.215,423.575,156.191,423z"/>
			<path style="fill:#C4CE6E;" d="M152.33,431.054c1.5-1.281,3.071-2.059,4.665-2.686c1.596-0.607,3.221-1.016,4.87-1.256
				c1.649-0.241,3.323-0.306,5.026-0.174h0c2.16,0.195,2.587,3.167,0.57,3.962l0,0c-1.597,0.606-3.221,1.016-4.872,1.249
				c-1.65,0.234-3.324,0.299-5.027,0.167C155.856,432.165,154.129,431.861,152.33,431.054z"/>
			<path style="fill:#C4CE6E;" d="M149.552,437.552c1.881-1.112,3.778-1.717,5.679-2.169c1.902-0.432,3.81-0.664,5.723-0.725
				c1.913-0.063,3.832,0.053,5.756,0.367l0,0c2.188,0.381,2.283,3.488,0.122,4.001h0c-1.902,0.431-3.81,0.664-5.724,0.718
				c-1.913,0.056-3.832-0.06-5.757-0.374C153.428,439.035,151.497,438.547,149.552,437.552z"/>
			<path style="fill:#C4CE6E;" d="M163.97,442.516c2.049,0.787,1.581,3.812-0.611,3.942h0c-1.862,0.089-3.694-0.019-5.5-0.296
				c-1.805-0.276-3.584-0.728-5.332-1.376c-1.745-0.667-3.466-1.489-5.109-2.818c1.968-0.768,3.857-1.031,5.722-1.138
				c1.862-0.089,3.694,0.019,5.498,0.303C160.443,441.416,162.221,441.867,163.97,442.516L163.97,442.516z"/>
			<path style="fill:#C4CE6E;" d="M175.452,356.032"/>
		</g>
		<g>
			<path style="fill:#935B50;" d="M165.331,464.416H139.61l-8.275-43.901c-0.203-1.078,0.616-2.077,1.703-2.077h38.866
				c1.087,0,1.906,0.999,1.703,2.077L165.331,464.416z"/>
			<path style="fill:#D6694B;" d="M173.008,423.687l0.598-3.172c0.203-1.078-0.616-2.077-1.703-2.077h-38.866
				c-1.087,0-1.906,0.999-1.703,2.077l0.598,3.172H173.008z"/>
			<g>
				<polygon style="fill:#D6694B;" points="141.666,451.983 136.232,446.498 141.666,441.014 147.099,446.498 				"/>
				<polygon style="fill:#D6694B;" points="152.533,451.983 147.099,446.498 152.533,441.014 157.966,446.498 				"/>
				<polygon style="fill:#D6694B;" points="163.275,451.983 157.841,446.498 163.275,441.014 168.708,446.498 				"/>
			</g>
		</g>
	</g>
	<g>
		<path style="fill:#D6694B;" d="M567.483,223.87H551.32c-9.345,0-16.92-7.575-16.92-16.92v-11.16h50.003v11.16
			C584.403,216.295,576.827,223.87,567.483,223.87z"/>
		<path style="fill:#8B9D36;" d="M553.223,190.785c-0.962-1.531-1.408-2.738-1.732-3.863c-0.294-1.11-0.397-2.1-0.327-2.996
			c0.053-0.903,0.431-1.639,1.084-2.26c0.651-0.62,1.414-1.21,1.914-1.904l3.091-4.165c1.037-1.423,1.997-2.849,2.665-4.57
			l0.023-0.06c0.119-0.307,0.464-0.459,0.771-0.34c0.128,0.05,0.229,0.139,0.295,0.249c1.112,1.85,1.395,4.011,1.584,6.043
			c0.156,2.056,0.063,4.092-0.226,6.028c-0.14,0.975-0.07,2.035-0.127,3.056c-0.056,1.02-0.422,1.91-1.129,2.625
			c-0.698,0.718-1.585,1.335-2.689,1.819c-1.139,0.465-2.407,0.846-4.239,0.878c-0.394,0.007-0.743-0.197-0.939-0.507
			L553.223,190.785z"/>
		<path style="fill:#5E7C24;" d="M544.252,170.936l3.455,8.274c0.271,0.656,0.714,1.257,1.098,1.838
			c0.177,0.303,0.342,0.582,0.438,0.887c0.098,0.303,0.131,0.632,0.149,0.939c0.005,0.314-0.02,0.668-0.058,0.998
			c-0.037,0.326-0.095,0.675-0.191,1.066c-0.068,0.338-0.196,0.744-0.304,1.189c-0.129,0.429-0.214,0.871-0.369,1.518l-0.018,0.074
			c-0.056,0.233-0.251,0.396-0.476,0.422c-0.621,0.073-1.199-0.04-1.771-0.2c-0.49-0.189-1-0.417-1.447-0.713
			c-0.406-0.28-0.774-0.603-1.121-0.948c-0.339-0.346-0.586-0.7-0.846-1.075c-0.492-0.75-0.707-1.57-0.695-2.419
			c0.009-0.85,0.132-1.692,0.117-2.488c0.003-0.801,0.023-1.592,0.064-2.376c0.071-0.789,0.165-1.571,0.263-2.347
			c0.252-1.557,0.534-3.087,1.012-4.61c0.062-0.196,0.27-0.305,0.466-0.244C544.128,170.755,544.211,170.839,544.252,170.936z"/>
		<path style="fill:#50661A;" d="M521.036,176.946c2.103,0.562,4.142,1.233,6.187,1.887l3.035,1.032l2.985,1.107
			c0.991,0.375,2.044,0.629,3.075,0.918c1.025,0.293,1.952,0.775,2.771,1.437c1.649,1.355,3.045,3.012,4.163,5.478l0.05,0.11
			c0.096,0.213,0.002,0.464-0.211,0.561c-0.004,0.002-0.01,0.005-0.015,0.006c-1.446,0.59-2.694,0.619-3.9,0.604
			c-1.185-0.049-2.302-0.244-3.342-0.562c-1.051-0.311-1.976-0.835-2.808-1.536c-0.822-0.715-1.622-1.465-2.477-2.107l-2.551-1.947
			l-2.486-2.049c-1.633-1.406-3.264-2.807-4.823-4.333c-0.143-0.14-0.145-0.369-0.006-0.512
			C520.778,176.946,520.914,176.914,521.036,176.946z"/>
		<path style="fill:#5E7C24;" d="M517.43,193.94c1.852-0.619,3.709-1.102,5.566-1.596l2.787-0.676l2.791-0.571
			c0.931-0.172,1.856-0.507,2.784-0.763c0.928-0.258,1.863-0.309,2.806-0.133c0.943,0.172,1.89,0.474,2.843,0.927
			c0.954,0.477,1.911,1.049,2.882,2.024c0.191,0.192,0.198,0.498,0.024,0.7c-0.9,1.041-1.815,1.678-2.733,2.221
			c-0.919,0.519-1.843,0.887-2.771,1.124c-0.928,0.242-1.865,0.256-2.809,0.063c-0.944-0.191-1.89-0.46-2.831-0.566l-2.824-0.374
			l-2.828-0.479c-1.887-0.363-3.773-0.715-5.664-1.202c-0.195-0.05-0.313-0.249-0.262-0.444
			C517.224,194.072,517.318,193.979,517.43,193.94z"/>
		<path style="fill:#8B9D36;" d="M530.975,199.268c1.276,0.369,2.183,0.912,3.002,1.497c0.797,0.595,1.456,1.255,1.991,1.971
			c0.542,0.713,0.869,1.523,1.005,2.413c0.136,0.891,0.199,1.81,0.403,2.671l0.554,2.604l0.409,2.665
			c0.105,0.897,0.209,1.8,0.26,2.718c0.038,0.924,0.095,1.839-0.108,2.844c-0.038,0.189-0.223,0.312-0.413,0.274
			c-0.109-0.022-0.196-0.092-0.243-0.184l-0.045-0.089c-0.732-1.457-1.768-2.908-2.732-4.341l-1.452-2.16l-1.402-2.182
			c-0.453-0.733-1.065-1.4-1.604-2.095c-0.544-0.694-0.896-1.468-1.047-2.334c-0.153-0.864-0.192-1.78-0.095-2.76
			c0.117-0.99,0.319-2.019,0.88-3.219C530.451,199.316,530.725,199.197,530.975,199.268z"/>
		<path style="fill:#8B9D36;" d="M502.481,206.124c1.239-1.471,2.741-2.614,4.325-3.678c0.8-0.512,1.627-0.992,2.477-1.433
			c0.856-0.426,1.736-0.787,2.626-1.159c0.899-0.308,1.776-0.816,2.697-1.151c0.459-0.17,0.927-0.311,1.404-0.373
			c0.477-0.05,0.961-0.039,1.446,0.019c1.935,0.287,3.879,1.052,5.583,3.032c0.171,0.198,0.162,0.49-0.01,0.679l-0.019,0.021
			c-0.916,1.001-1.763,1.572-2.588,2.097c-0.821,0.532-1.622,0.851-2.407,1.149c-0.79,0.269-1.581,0.332-2.409,0.235
			c-0.833-0.13-1.679-0.242-2.515-0.233c-0.827,0.036-1.668,0.062-2.501,0.153c-0.847,0.04-1.697,0.12-2.543,0.239
			c-1.708,0.193-3.442,0.516-5.16,0.976l-0.035,0.009c-0.192,0.052-0.39-0.063-0.442-0.255
			C502.377,206.333,502.408,206.211,502.481,206.124z"/>
		<path style="fill:#50661A;" d="M521.551,203.807c1.337-0.04,2.388,0.276,3.34,0.689c0.942,0.427,1.747,0.997,2.432,1.663
			c0.68,0.671,1.161,1.491,1.409,2.425c0.26,0.928,0.402,1.898,0.65,2.801l0.327,1.369l0.249,1.386
			c0.108,0.937,0.186,1.871,0.193,2.803c0.018,1.864-0.277,3.722-0.811,5.433c-0.06,0.192-0.264,0.299-0.456,0.239
			c-0.114-0.036-0.198-0.122-0.235-0.227l-0.009-0.027c-0.576-1.671-1.106-3.212-1.903-4.644c-0.354-0.72-0.765-1.413-1.188-2.082
			l-0.613-1.004l-0.67-0.967c-0.437-0.644-1.047-1.195-1.61-1.746c-0.556-0.556-0.963-1.18-1.197-1.934
			c-0.462-1.529-0.74-3.186-0.415-5.693l0.005-0.035C521.086,204.003,521.301,203.815,521.551,203.807z"/>
		<path style="fill:#50661A;" d="M501.108,220.667c1.379-1.181,2.796-2.258,4.192-3.354l2.107-1.597l2.119-1.523
			c0.709-0.495,1.338-1.141,1.988-1.721c0.649-0.581,1.382-0.98,2.207-1.19c0.832-0.211,1.696-0.324,2.656-0.323
			c0.465-0.008,0.972,0.044,1.498,0.091c0.537,0.081,1.063,0.134,1.733,0.309l0.028,0.007c0.251,0.066,0.413,0.299,0.398,0.549
			c-0.041,0.673-0.213,1.242-0.398,1.805c-0.209,0.509-0.433,1.029-0.707,1.478c-0.538,0.881-1.177,1.636-1.877,2.242
			c-0.701,0.619-1.511,1.016-2.411,1.219c-0.899,0.204-1.828,0.325-2.684,0.581l-2.591,0.701l-2.631,0.567
			c-1.772,0.324-3.536,0.641-5.357,0.807c-0.202,0.018-0.38-0.13-0.399-0.332C500.968,220.859,501.022,220.742,501.108,220.667z"/>
		<path style="fill:#8B9D36;" d="M500.028,232.311c1.379-1.181,2.796-2.258,4.192-3.354l2.107-1.597l2.119-1.523
			c0.709-0.495,1.338-1.141,1.988-1.721c0.649-0.581,1.382-0.98,2.207-1.19c0.832-0.211,1.696-0.324,2.656-0.323
			c0.465-0.008,0.972,0.044,1.498,0.091c0.537,0.081,1.063,0.134,1.733,0.309l0.028,0.007c0.251,0.066,0.413,0.299,0.398,0.549
			c-0.041,0.673-0.213,1.242-0.398,1.805c-0.209,0.509-0.433,1.029-0.707,1.478c-0.538,0.881-1.177,1.636-1.877,2.242
			c-0.701,0.619-1.511,1.016-2.411,1.219c-0.899,0.204-1.828,0.325-2.684,0.581l-2.591,0.701l-2.631,0.567
			c-1.772,0.324-3.536,0.641-5.357,0.807c-0.202,0.018-0.38-0.13-0.399-0.332C499.888,232.503,499.942,232.385,500.028,232.311z"/>
		<path style="fill:#5E7C24;" d="M519.881,219.322l0.424-0.057l0.367-0.001c0.246,0.004,0.49,0.015,0.734,0.032
			c0.445,0.07,0.858,0.174,1.219,0.331c0.746,0.292,1.33,0.736,1.768,1.252c0.451,0.514,0.655,1.149,0.622,1.827
			c-0.023,0.678-0.179,1.356-0.19,1.981c-0.051,1.257-0.292,2.486-0.705,3.631c-0.413,1.146-0.956,2.212-1.653,3.17
			c-0.127,0.175-0.372,0.213-0.546,0.086c-0.065-0.048-0.112-0.112-0.137-0.182l-0.007-0.019c-0.401-1.1-0.713-2.106-1.157-3.042
			c-0.189-0.468-0.402-0.915-0.642-1.34c-0.193-0.431-0.441-0.835-0.649-1.23c-0.227-0.392-0.611-0.729-0.946-1.044
			c-0.333-0.317-0.473-0.666-0.436-1.106c0.046-0.448,0.155-0.931,0.398-1.548c0.096-0.29,0.252-0.639,0.402-0.997
			c0.229-0.42,0.333-0.769,0.606-1.284l0.078-0.147C519.524,219.458,519.697,219.347,519.881,219.322z"/>
		<path style="fill:#8B9D36;" d="M516.838,229.751c1.257,0.643,2.038,1.541,2.685,2.484c0.608,0.95,1.035,1.976,1.244,3.017
			c0.236,1.044,0.169,2.106-0.148,3.119c-0.303,1.018-0.766,1.98-1.073,2.95c-0.698,1.921-1.538,3.756-2.657,5.405
			c-0.518,0.842-1.159,1.607-1.748,2.377c-0.622,0.752-1.32,1.444-1.988,2.126c-0.139,0.142-0.366,0.144-0.509,0.005
			c-0.09-0.089-0.124-0.213-0.101-0.328l0.007-0.034c0.197-0.94,0.434-1.836,0.621-2.735c0.143-0.917,0.383-1.776,0.456-2.68
			l0.186-1.312l0.095-1.311c0.118-0.85,0.103-1.716,0.136-2.554c0-0.845-0.164-1.697-0.328-2.516
			c-0.055-0.409-0.119-0.808-0.107-1.205c0.019-0.397,0.071-0.789,0.16-1.187c0.205-0.799,0.467-1.608,0.852-2.483
			c0.39-0.877,0.845-1.796,1.556-2.911l0.038-0.059C516.349,229.71,516.621,229.641,516.838,229.751z"/>
		<path style="fill:#50661A;" d="M551.903,189.187c0.906,0.893,1.405,1.741,1.808,2.579c0.379,0.835,0.605,1.653,0.698,2.454
			c0.098,0.802-0.033,1.574-0.372,2.314c-0.337,0.74-0.755,1.466-1.018,2.217l-0.856,2.24l-1.004,2.214
			c-0.754,1.452-1.444,2.947-2.629,4.271c-0.131,0.146-0.356,0.159-0.502,0.028c-0.081-0.073-0.121-0.175-0.118-0.276l0.003-0.081
			c0.054-1.507-0.08-3.078-0.185-4.632l-0.149-2.332l-0.089-2.322c-0.016-0.772-0.198-1.569-0.307-2.354
			c-0.11-0.785-0.019-1.539,0.294-2.264c0.31-0.725,0.745-1.435,1.329-2.129c0.606-0.691,1.306-1.371,2.401-2.009
			C551.436,188.967,551.722,189.011,551.903,189.187z"/>
		<path style="fill:#8B9D36;" d="M560.092,192.598l0.407,0.104l0.338,0.125l0.668,0.258c0.385,0.19,0.745,0.39,1.036,0.612
			c0.623,0.431,1.053,0.922,1.373,1.441c0.315,0.522,0.408,1.095,0.275,1.706c-0.12,0.605-0.346,1.228-0.406,1.816
			c-0.126,1.187-0.426,2.401-0.837,3.591c-0.447,1.156-1.02,2.453-2.113,3.261c-0.165,0.122-0.399,0.087-0.521-0.078
			c-0.046-0.063-0.07-0.135-0.073-0.207l-0.003-0.08c-0.042-1.084-0.388-2.003-0.79-2.974c-0.192-0.48-0.381-0.944-0.616-1.419
			l-0.606-1.41c-0.206-0.474-0.565-0.917-0.873-1.368c-0.3-0.449-0.413-0.93-0.301-1.461c0.106-0.532,0.312-1.091,0.694-1.705
			c0.166-0.301,0.406-0.623,0.66-0.953l0.472-0.522l0.236-0.264l0.303-0.284l0.021-0.019
			C559.618,192.597,559.869,192.543,560.092,192.598z"/>
		<path style="fill:#50661A;" d="M561.649,192.369c-0.135-1.322,0.02-2.367,0.242-3.346c0.24-0.963,0.588-1.822,1.03-2.593
			c0.438-0.773,1.043-1.391,1.796-1.869c0.753-0.479,1.561-0.906,2.25-1.444l2.102-1.584l2.168-1.524l4.429-2.974l0.009-0.006
			c0.167-0.112,0.394-0.068,0.507,0.099c0.069,0.102,0.078,0.229,0.037,0.336c-0.673,1.724-1.538,3.303-2.384,4.89l-1.335,2.324
			l-1.424,2.243c-0.49,0.733-0.861,1.578-1.292,2.367c-0.429,0.792-1.011,1.439-1.759,1.932c-0.745,0.495-1.585,0.899-2.536,1.198
			c-0.968,0.282-2.004,0.498-3.334,0.434C561.888,192.838,561.675,192.628,561.649,192.369z"/>
		<path style="fill:#5E7C24;" d="M571.061,195.523c0.092-1.387,0.446-2.468,0.862-3.478c0.431-0.991,0.962-1.867,1.576-2.644
			c0.611-0.78,1.368-1.385,2.257-1.83c0.887-0.446,1.823-0.831,2.656-1.342l2.531-1.488l2.594-1.404
			c1.755-0.901,3.502-1.809,5.329-2.609c0.183-0.08,0.396,0.003,0.477,0.187c0.052,0.118,0.036,0.249-0.032,0.349l-0.009,0.013
			c-1.139,1.665-2.358,3.222-3.569,4.785l-1.855,2.293l-1.919,2.209c-0.651,0.722-1.198,1.569-1.793,2.355
			c-0.594,0.787-1.32,1.415-2.192,1.867c-0.869,0.456-1.822,0.812-2.874,1.053c-1.067,0.223-2.195,0.374-3.587,0.219
			C571.243,196.03,571.046,195.79,571.061,195.523z"/>
		<path style="fill:#5E7C24;" d="M571.285,205.31c0.255,1.233,0.209,2.2,0.091,3.103c-0.135,0.888-0.385,1.675-0.731,2.376
			c-0.343,0.704-0.857,1.257-1.526,1.673c-0.668,0.417-1.394,0.783-1.998,1.256l-1.854,1.384l-1.933,1.314
			c-1.321,0.847-2.634,1.701-4.049,2.466c-0.181,0.098-0.407,0.031-0.505-0.151c-0.054-0.1-0.057-0.215-0.019-0.313
			c0.586-1.497,1.273-2.905,1.951-4.32l1.067-2.079l1.146-2.01c0.396-0.658,0.669-1.423,1.002-2.137
			c0.331-0.715,0.817-1.293,1.474-1.72c0.654-0.43,1.405-0.773,2.269-1.017c0.882-0.228,1.835-0.392,3.091-0.29
			C571.025,204.868,571.233,205.063,571.285,205.31z"/>
		<path style="fill:#50661A;" d="M569.893,214.288l0.436,0.052l0.372,0.088l0.736,0.192c0.429,0.161,0.848,0.34,1.186,0.557
			c0.729,0.415,1.273,0.932,1.697,1.508c0.432,0.572,0.624,1.247,0.599,1.974c-0.02,0.726-0.149,1.47-0.139,2.171
			c0.015,1.41-0.173,2.843-0.549,4.23c-0.421,1.383-1.012,2.723-1.924,3.782c-0.136,0.158-0.375,0.176-0.533,0.04
			c-0.073-0.063-0.115-0.146-0.128-0.234l-0.003-0.026c-0.178-1.304-0.485-2.435-0.912-3.518c-0.214-0.545-0.426-1.066-0.695-1.582
			c-0.218-0.513-0.49-1.026-0.733-1.525c-0.253-0.505-0.675-0.959-1.043-1.417c-0.37-0.457-0.545-0.961-0.536-1.548
			c0.018-0.589,0.112-1.221,0.361-1.943c0.106-0.354,0.267-0.736,0.447-1.14l0.344-0.646l0.169-0.328l0.229-0.362l0.026-0.041
			C569.429,214.364,569.664,214.261,569.893,214.288z"/>
		<path style="fill:#8B9D36;" d="M571.264,196.711l0.414-0.115l0.365-0.065l0.724-0.134c0.438-0.045,0.863-0.083,1.233-0.064
			c0.777-0.004,1.421,0.119,1.997,0.316c0.578,0.189,1.006,0.556,1.323,1.068c0.315,0.523,0.603,1.08,0.989,1.519
			c0.385,0.42,0.77,0.865,1.161,1.275c0.379,0.456,0.772,0.852,1.182,1.259c0.823,0.823,1.633,1.557,2.778,1.938l0.069,0.023
			c0.192,0.064,0.297,0.272,0.233,0.464c-0.028,0.085-0.085,0.154-0.156,0.197c-1.3,0.798-2.949,0.74-4.338,0.579
			c-1.416-0.208-2.786-0.57-4.046-1.084c-0.619-0.261-1.348-0.389-2.007-0.61c-0.672-0.211-1.202-0.61-1.584-1.181
			c-0.376-0.575-0.672-1.237-0.823-2.041c-0.089-0.388-0.128-0.825-0.145-1.281l0.042-0.751l0.027-0.377l0.079-0.428
			c0.045-0.248,0.228-0.435,0.456-0.499L571.264,196.711z"/>
		<path style="fill:none;stroke:#7E883B;stroke-miterlimit:10;" d="M564.303,222.37c0.293-1.555,0.954-3.694,2.64-5.52
			c1.137-1.231,1.773-1.273,2.64-2.4c0.732-0.951,1.341-2.302,1.44-6.96c0.094-4.434-0.36-7.788-0.48-8.64
			c-0.25-1.773,0.969-1.526,0.713-3.488c-0.084-0.638-0.534-1.184-1.147-1.381c-3.414-1.094-6.213-1.353-8.206-1.372
			c-2.764-0.026-3.251,0.415-5.04,0c-4.053-0.94-4.188-3.816-7.68-4.56c-2.811-0.599-5.954,0.577-7.732,2.422
			c-1.647,1.71-0.921,2.748-2.588,4.778c-1.58,1.923-3.571,2.621-7.2,3.84c-5.792,1.946-6.762,0.927-8.64,2.64
			c-2.43,2.217-2.909,5.845-3.12,7.44c-0.219,1.658-0.043,2.363,0,4.56c0,0,0.084,4.28-0.72,9.12
			c-1.014,6.104-5.595,11.553-8.64,14.64"/>
		<path style="fill:#50661A;" d="M512.207,236.236l0.144,0.391l0.091,0.344l0.177,0.683c0.071,0.414,0.126,0.814,0.125,1.164
			c0.034,0.732-0.076,1.337-0.267,1.871s-0.553,0.916-1.072,1.16c-0.516,0.246-1.091,0.441-1.544,0.743
			c-0.458,0.297-0.923,0.589-1.399,0.87l-1.478,0.801c-1.018,0.505-2.028,1.017-3.14,1.44c-0.204,0.078-0.433-0.025-0.51-0.229
			c-0.03-0.078-0.033-0.159-0.014-0.234c0.282-1.155,0.666-2.22,1.041-3.293l0.613-1.566c0.22-0.508,0.453-1.004,0.691-1.496
			c0.244-0.486,0.366-1.081,0.547-1.624c0.178-0.544,0.513-0.951,1.019-1.206c0.506-0.255,1.093-0.439,1.823-0.496
			c0.348-0.044,0.751-0.039,1.171-0.019l0.7,0.092l0.352,0.048l0.405,0.095C511.932,235.831,512.123,236.013,512.207,236.236z"/>
		<path style="fill:#8B9D36;" d="M565.373,219.903c1.02,0.68,1.626,1.381,2.132,2.087c0.483,0.707,0.807,1.421,0.995,2.136
			c0.192,0.716,0.148,1.433-0.109,2.137c-0.256,0.705-0.6,1.403-0.789,2.107c-0.211,0.705-0.43,1.409-0.667,2.112
			c-0.274,0.7-0.56,1.397-0.876,2.09c-0.346,0.689-0.699,1.379-1.157,2.044c-0.465,0.633-0.976,1.389-1.932,1.695
			c-0.177,0.057-0.366-0.041-0.423-0.218c-0.027-0.085-0.019-0.173,0.017-0.248l0.072-0.149c0.225-0.466,0.202-1.12,0.179-1.759
			c-0.037-0.646-0.101-1.306-0.204-1.972c-0.08-0.663-0.186-1.332-0.303-2c-0.084-0.666-0.185-1.334-0.292-2.002
			c-0.093-0.669-0.355-1.346-0.548-2.017c-0.196-0.671-0.191-1.331,0.034-1.992c0.221-0.661,0.566-1.324,1.056-1.994
			c0.514-0.671,1.118-1.347,2.115-2.044l0.01-0.007C564.894,219.762,565.169,219.768,565.373,219.903z"/>
	</g>
	<g>
		<g>
			<g>
				<path style="fill:#D6694B;" d="M286.126,237.051H151.594V84.344h134.532V237.051z M156.374,232.271h124.971V89.124H156.374
					V232.271z"/>
			</g>
			<path style="fill:#935B50;" d="M289.553,244.249H148.167c-0.713,0-1.291-0.578-1.291-1.291v-4.574
				c0-0.713,0.578-1.291,1.291-1.291h141.386c0.713,0,1.291,0.578,1.291,1.291v4.574
				C290.843,243.671,290.265,244.249,289.553,244.249z"/>
			<rect x="156.374" y="135.2" style="fill:#E19974;" width="124.971" height="5.724"/>
		</g>
		<g>
			<line style="fill:none;stroke:#E19974;stroke-miterlimit:10;" x1="176.259" y1="201.506" x2="218.757" y2="160.697"/>
			<line style="fill:none;stroke:#E19974;stroke-miterlimit:10;" x1="176.259" y1="176.977" x2="211.892" y2="143.989"/>
		</g>
		<path style="fill:#FFBA55;" d="M215.892,88.344c0,0-12.487,56.423-55.518,80.644c0,0,33.955,47.464,37.702,75.683h-42.482V88.344
			H215.892z"/>
		<g>
			<path style="fill:#E6952A;" d="M160.374,169.05c-0.797,0.394-1.593,0.483-2.39,0.5c-0.797-0.015-1.593-0.103-2.39-0.5
				c0.797-0.396,1.593-0.485,2.39-0.5C158.781,168.567,159.577,168.656,160.374,169.05z"/>
		</g>
		<g>
			<g>
				<path style="fill:#E6952A;" d="M165.823,154.766c1.635-2.061,3.261-4.126,4.829-6.235c1.597-2.085,3.167-4.192,4.689-6.331
					c3.054-4.27,6.089-8.555,8.851-13.016c2.816-4.422,5.493-8.937,7.861-13.614c0.64-1.146,1.141-2.357,1.719-3.534l0.841-1.778
					l0.743-1.819c0.478-1.219,1.063-2.404,1.456-3.655l1.265-3.734c-1.162,5.142-3.108,10.08-5.333,14.86
					c-0.576,1.186-1.159,2.37-1.757,3.546c-0.615,1.167-1.272,2.31-1.906,3.467c-0.625,1.162-1.303,2.293-1.985,3.421
					c-0.688,1.124-1.332,2.277-2.059,3.376c-2.847,4.438-5.883,8.751-9.079,12.937C172.743,146.83,169.413,150.916,165.823,154.766z
					"/>
			</g>
			<g>
				<path style="fill:#E6952A;" d="M168.703,132.032c0.919-2.352,1.936-4.657,2.968-6.953c1.022-2.302,2.114-4.569,3.207-6.837
					c1.114-2.257,2.23-4.513,3.415-6.735l1.781-3.332c0.627-1.094,1.222-2.204,1.876-3.285c-0.45,1.181-0.958,2.333-1.436,3.5
					l-1.53,3.454c-1.022,2.302-2.114,4.569-3.208,6.836c-1.115,2.256-2.231,4.512-3.417,6.734
					C171.183,127.641,169.992,129.86,168.703,132.032z"/>
			</g>
			<g>
				<path style="fill:#E6952A;" d="M159.067,132.032c0.36-3.099,0.828-6.178,1.312-9.255c0.473-3.078,1.023-6.142,1.574-9.207
					c0.574-3.06,1.15-6.119,1.802-9.165l0.982-4.568c0.363-1.516,0.693-3.038,1.085-4.548c-0.17,1.551-0.404,3.091-0.603,4.637
					l-0.707,4.618c-0.474,3.078-1.024,6.142-1.576,9.206c-0.575,3.06-1.151,6.119-1.804,9.164
					C160.491,125.963,159.833,129.007,159.067,132.032z"/>
			</g>
		</g>
		<g>
			<g>
				<path style="fill:#E6952A;" d="M162.445,185.505c2.727,4.272,5.261,8.663,7.705,13.103c2.445,4.44,4.727,8.97,6.928,13.54
					c2.12,4.608,4.162,9.261,5.838,14.06c0.818,2.406,1.57,4.838,2.14,7.318c0.521,2.48,0.953,5.034,0.687,7.566
					c0.038-2.538-0.487-5.024-1.163-7.448c-0.661-2.431-1.488-4.817-2.387-7.173c-1.813-4.709-3.836-9.341-6.019-13.898
					c-2.118-4.589-4.406-9.099-6.701-13.607c-1.142-2.257-2.31-4.502-3.492-6.739L162.445,185.505z"/>
			</g>
			<g>
				<path style="fill:#E6952A;" d="M160.374,202.045c0.206,3.25,0.303,6.501,0.383,9.751c0.091,3.25,0.104,6.501,0.117,9.751
					c-0.011,3.25-0.024,6.501-0.115,9.751l-0.139,4.876c-0.083,1.625-0.132,3.25-0.245,4.876c-0.113-1.625-0.162-3.25-0.245-4.876
					l-0.139-4.876c-0.091-3.25-0.104-6.501-0.115-9.751c0.013-3.25,0.025-6.501,0.117-9.751
					C160.071,208.546,160.168,205.296,160.374,202.045z"/>
			</g>
			<g>
				<path style="fill:#E6952A;" d="M165.823,208.272c0.955,2.471,1.748,4.995,2.491,7.534c0.753,2.537,1.378,5.11,1.95,7.695
					c0.557,2.588,1.016,5.204,1.301,7.844c0.147,1.319,0.227,2.647,0.286,3.973l-0.047,1.995c-0.042,0.663-0.139,1.324-0.221,1.977
					l-0.044-1.978l-0.177-1.963c-0.157-1.305-0.321-2.606-0.559-3.9c-0.46-2.586-0.941-5.17-1.516-7.739
					c-0.544-2.575-1.14-5.14-1.714-7.713l-0.89-3.855L165.823,208.272z"/>
			</g>
		</g>
		<g>
			<path style="fill:#FFBA55;" d="M221.594,88.344c0,0,12.487,56.423,55.518,80.644c0,0-33.955,47.464-37.702,75.683h42.482V88.344
				H221.594z"/>
			<g>
				<path style="fill:#E6952A;" d="M277.112,169.05c0.797-0.394,1.593-0.483,2.39-0.5c0.797,0.015,1.594,0.103,2.39,0.5
					c-0.797,0.396-1.593,0.485-2.39,0.5C278.705,169.533,277.908,169.444,277.112,169.05z"/>
			</g>
			<g>
				<g>
					<path style="fill:#E6952A;" d="M271.663,154.766c-3.591-3.85-6.92-7.936-10.133-12.109c-3.197-4.186-6.232-8.499-9.079-12.937
						c-0.727-1.099-1.371-2.252-2.059-3.376c-0.682-1.128-1.36-2.259-1.985-3.421c-0.634-1.156-1.291-2.3-1.906-3.467
						c-0.598-1.176-1.181-2.36-1.757-3.546c-2.226-4.78-4.171-9.718-5.333-14.86l1.265,3.734c0.393,1.251,0.978,2.436,1.456,3.655
						l0.743,1.819l0.84,1.778c0.578,1.177,1.08,2.388,1.719,3.534c2.367,4.677,5.045,9.192,7.861,13.614
						c2.762,4.46,5.797,8.746,8.851,13.016c1.522,2.14,3.092,4.246,4.689,6.331C268.402,150.641,270.028,152.705,271.663,154.766z"
						/>
				</g>
				<g>
					<path style="fill:#E6952A;" d="M268.783,132.032c-1.289-2.171-2.48-4.391-3.656-6.618c-1.186-2.222-2.301-4.478-3.417-6.734
						c-1.094-2.267-2.186-4.534-3.208-6.836l-1.53-3.454c-0.477-1.167-0.985-2.32-1.436-3.5c0.654,1.081,1.249,2.191,1.876,3.285
						l1.781,3.332c1.185,2.222,2.301,4.478,3.415,6.735c1.093,2.267,2.185,4.535,3.207,6.837
						C266.847,127.375,267.864,129.679,268.783,132.032z"/>
				</g>
				<g>
					<path style="fill:#E6952A;" d="M278.418,132.032c-0.766-3.025-1.424-6.069-2.065-9.116c-0.653-3.045-1.228-6.105-1.804-9.164
						c-0.552-3.064-1.102-6.128-1.576-9.206l-0.707-4.618c-0.2-1.546-0.433-3.086-0.603-4.637c0.393,1.51,0.722,3.032,1.086,4.548
						l0.982,4.568c0.652,3.045,1.228,6.105,1.802,9.165c0.551,3.064,1.101,6.128,1.574,9.207
						C277.59,125.853,278.058,128.932,278.418,132.032z"/>
				</g>
			</g>
			<g>
				<g>
					<path style="fill:#E6952A;" d="M275.041,185.505l-3.536,6.723c-1.182,2.237-2.35,4.482-3.492,6.739
						c-2.295,4.508-4.583,9.018-6.701,13.607c-2.183,4.558-4.206,9.189-6.019,13.898c-0.899,2.356-1.726,4.742-2.387,7.173
						c-0.676,2.423-1.201,4.91-1.163,7.448c-0.267-2.532,0.166-5.086,0.687-7.566c0.57-2.48,1.322-4.913,2.14-7.318
						c1.676-4.799,3.718-9.453,5.838-14.06c2.201-4.57,4.482-9.1,6.928-13.54C269.779,194.168,272.314,189.777,275.041,185.505z"/>
				</g>
				<g>
					<path style="fill:#E6952A;" d="M277.112,202.045c0.206,3.25,0.303,6.501,0.383,9.751c0.091,3.25,0.104,6.501,0.117,9.751
						c-0.011,3.25-0.024,6.501-0.115,9.751l-0.14,4.876c-0.083,1.625-0.132,3.25-0.245,4.876c-0.113-1.625-0.162-3.25-0.245-4.876
						l-0.14-4.876c-0.091-3.25-0.104-6.501-0.115-9.751c0.013-3.25,0.025-6.501,0.117-9.751
						C276.809,208.546,276.906,205.296,277.112,202.045z"/>
				</g>
				<g>
					<path style="fill:#E6952A;" d="M271.663,208.272l-0.86,3.87l-0.89,3.855c-0.574,2.573-1.17,5.138-1.714,7.713
						c-0.575,2.569-1.056,5.153-1.516,7.739c-0.238,1.294-0.401,2.594-0.559,3.9l-0.177,1.963l-0.044,1.978
						c-0.082-0.653-0.18-1.314-0.221-1.977l-0.047-1.995c0.059-1.326,0.139-2.654,0.286-3.973c0.284-2.64,0.744-5.255,1.301-7.844
						c0.572-2.586,1.197-5.159,1.95-7.695C269.915,213.267,270.708,210.743,271.663,208.272z"/>
				</g>
			</g>
		</g>
		<g>
			<g>
				<polygon style="fill:#E19974;" points="224.93,232.198 210.793,232.198 206.03,207.164 229.693,207.164 				"/>
				<polygon style="fill:#D6694B;" points="229.149,210.022 229.693,207.164 206.03,207.164 206.574,210.022 				"/>
				<g>
					
						<rect x="209.811" y="220.331" transform="matrix(0.7071 0.7071 -0.7071 0.7071 219.3614 -84.7003)" style="fill:#D6694B;" width="4.223" height="4.223"/>
					
						<rect x="215.784" y="220.331" transform="matrix(0.7071 0.7071 -0.7071 0.7071 221.1107 -88.9235)" style="fill:#D6694B;" width="4.223" height="4.223"/>
					
						<rect x="221.688" y="220.331" transform="matrix(0.7071 0.7071 -0.7071 0.7071 222.8399 -93.0981)" style="fill:#D6694B;" width="4.223" height="4.223"/>
				</g>
			</g>
			<g>
				<path style="fill:#558031;" d="M223.368,186.096c0,0,1.241,17.537-6.034,21.254C217.334,207.35,214.815,200.701,223.368,186.096
					z"/>
				<path style="fill:#849F4C;" d="M199.89,193.629c0,0,11.903,2.054,17.443,13.721C217.334,207.35,204.245,202.904,199.89,193.629z
					"/>
				<path style="fill:#A6B862;" d="M204.111,216.601c0,0,6.053-9.056,13.223-9.251C217.334,207.35,216.254,214.642,204.111,216.601z
					"/>
				<path style="fill:#849F4C;" d="M211.578,188.595c0,0,8.399,7.669,5.756,18.754C217.334,207.35,212.681,202.418,211.578,188.595z
					"/>
				<path style="fill:#A6B862;" d="M217.334,207.35c0,0,2.951-10.802,17.868-13.572C235.202,193.778,231.845,203.613,217.334,207.35
					z"/>
				<path style="fill:#849F4C;" d="M239.154,204.526c0,0-11.382-4.692-21.82,2.824C217.334,207.35,231.21,209.016,239.154,204.526z"
					/>
				<path style="fill:#558031;" d="M239.05,215.45c0,0-5.496-8.803-21.717-8.1L239.05,215.45z"/>
				<path style="fill:#558031;" d="M193.76,205.925c0,0,14.948-5.543,23.769,1.16C217.529,207.085,209.153,211.699,193.76,205.925z"
					/>
				<path style="fill:#558031;" d="M206.017,189.876c0,0,13.338,9.433,11.425,17.481
					C217.442,207.357,208.188,199.938,206.017,189.876z"/>
				<path style="fill:#849F4C;" d="M229.414,216.739c0,0-10.996-1.877-12.081-9.39C217.334,207.35,225.368,207.748,229.414,216.739z
					"/>
			</g>
		</g>
	</g>
	<line style="fill:none;stroke:#935B50;stroke-width:2;stroke-miterlimit:10;" x1="100" y1="465.1" x2="600" y2="465.1"/>
</g>
</svg>
