<svg id="Layer_1" data-name="Layer 1" xmlns="http://www.w3.org/2000/svg" viewBox="0 0 700 550"><title>playing video game</title><path d="M381.211,236.49611c-1.21-2.5-3.37988-2.23-6.02979-7.52-2.54-5.34-.99023-6.88-2.20019-9.38-.79-1.6-4.46973-3.52991-12.64014-1.21-4.65967,1.32-11.46972,3.61-11.26953,5.97.23975,2.94006,3.03955,2.61,6.38965,4.32995,3.39014,1.76,4.52,2.84009,6.43017,6.77,1.23,2.53,1.73975,4.08008,1.75,5.87012.85987,3.02991,3.15967,9.46,6.54981,6.97,3.18018-2.3501,8.57031-7.83008,11.27-10.62012A2.863,2.863,0,0,0,381.211,236.49611Zm-13.25977-7.77a3.39234,3.39234,0,1,1,1.56006-4.54A3.40115,3.40115,0,0,1,367.95127,228.72609Zm2.93994,9.9a1.70177,1.70177,0,1,1,.77979-2.27A1.71336,1.71336,0,0,1,370.89121,238.62611Zm4.52979,1.55994a1.695,1.695,0,1,1,.79-2.27A1.689,1.689,0,0,1,375.421,240.18605Z" fill-rule="evenodd"/><path d="M275.50506,154.22142a29.2,29.2,0,0,1,2.05078,4.2135,23.91863,23.91863,0,0,1,1.30347,4.55664,11.58471,11.58471,0,0,1,.15332,2.45337l-.03345.55175a2.81665,2.81665,0,0,0,.02173.46607,3.37347,3.37347,0,0,0,.23511.92639,6.34114,6.34114,0,0,0,2.887,3.01367l.04809.02429a.33749.33749,0,0,1,.17652.37574,5.06324,5.06324,0,0,1-.47852,1.22607,3.96531,3.96531,0,0,1-.78955,1.03113,2.97335,2.97335,0,0,1-1.10547.68957,4.03045,4.03045,0,0,1-1.27.23169l.24292-.28173a62.34151,62.34151,0,0,1,.667,6.39233,18.2263,18.2263,0,0,1-.15406,3.27173,7.72729,7.72729,0,0,1-1.14624,3.28393,5.90556,5.90556,0,0,1-2.97217,2.03785,16.38979,16.38979,0,0,1-3.25878.73608,30.20292,30.20292,0,0,1-6.50464.02856l.62719-.37268a9.2737,9.2737,0,0,0-.592,1.615,6.18521,6.18521,0,0,0-.21972,1.71656,4.38134,4.38134,0,0,0,.38769,1.6604,4.14676,4.14676,0,0,0,1.14893,1.35144l.00683.00573a.07886.07886,0,0,1-.08618.13074,3.97059,3.97059,0,0,1-1.51953-1.20886,4.30092,4.30092,0,0,1-.76147-1.8562,7.12,7.12,0,0,1-.01416-1.99854,8.05474,8.05474,0,0,1,.48193-1.95312.58178.58178,0,0,1,.54028-.3728h.08716a43.13106,43.13106,0,0,0,6.19165-.40674,18.08091,18.08091,0,0,0,2.93628-.65662,4.42644,4.42644,0,0,0,2.28272-1.353,7.07382,7.07382,0,0,0,1.05151-2.62915,24.47,24.47,0,0,0,.42773-3.05627,31.00625,31.00625,0,0,0-.094-6.29407.25161.25161,0,0,1,.21973-.28015l.01733-.00147.0061-.00024a2.97675,2.97675,0,0,0,1.09864-.19214,2.47475,2.47475,0,0,0,.91479-.60547,3.30258,3.30258,0,0,0,.60425-.932,3.62377,3.62377,0,0,0,.27954-1.06421l.22461.39978a7.2879,7.2879,0,0,1-2.14649-1.21192,6.34119,6.34119,0,0,1-1.64843-1.94128,4.45758,4.45758,0,0,1-.41773-1.29041,4.174,4.174,0,0,1-.04248-.69043l.02759-.6062a12.186,12.186,0,0,0-.08276-2.17126,61.89029,61.89029,0,0,0-2.1543-8.89758.07952.07952,0,0,1,.05078-.10035A.08243.08243,0,0,1,275.50506,154.22142Z"/><path d="M277.14121,186.81618c-3.12988,2.55993-11.52,1.99-11.52,1.99-5.58985-3.21008-7.02-9.33008-7.33008-11.23-.49024.88989-1.73,1.26-2.48,2.41992-2.12989,3.27-6.73,5.83008-8.96,5.54-5.44-.7-8.19-9.49-7.81983-15.64.56983-9.39.42969-14.5,11.79981-20.76a24.26187,24.26187,0,0,1,5.99023-2.39c-1.07031,4.32007-1.06006,11.02-.68018,17.04h.12989a6.73331,6.73331,0,1,0,3.02978-.2c-.42968-6.69007-.23974-13.96009.42041-17.34009.41992-.04.83985-.06006,1.25-.07007a18.14319,18.14319,0,0,1,3.96973.33008,20.82473,20.82473,0,0,1,11.49023,6.89s-1.62011,1.78992-3.98,4.13a93.36349,93.36349,0,0,1-8.33007,7.51s3.56,10.98,14.83007,10.98C279.22129,179.25612,279.35118,185.01613,277.14121,186.81618Z"/><path d="M200.01955,217.39118s16.68486-22.37288,29.7673-23.32088l47.41542,1.81294a25.54713,25.54713,0,0,1,22.97846,16.64956l10.67708,28.80586a7.21309,7.21309,0,0,0,6.19968,4.68393c9.33235.7338,30.29191,2.17862,38.57681,1.0885,0,0,1.84861,10.94944-.9954,14.22005L302.59351,266.877s-21.75667-49.91238-27.01809-51.19218C275.57542,215.68478,214.3344,214.54717,200.01955,217.39118Z"/><path d="M200.02044,217.4702l-13.09424.29064a9.21329,9.21329,0,0,0-5.98144,1.82935,8.81209,8.81209,0,0,0-3.28614,5.22644,29.71429,29.71429,0,0,0-.31225,3.21021c-.10034,1.09277-.21363,2.18347-.34961,3.27014-.27051,2.1737-.593,4.33825-.94361,6.49743q-1.07116,6.47517-2.42211,12.89515a.52251.52251,0,0,1-.12452.24475l-.00732.00793-8.677,9.52063a.60385.60385,0,0,1-.061.058l-.00683.00525a28.02438,28.02438,0,0,0-3.689,3.5708,18.32089,18.32089,0,0,0-2.81518,4.21192,16.06052,16.06052,0,0,0-1.14185,9.89026l3.418,20.7323q1.72192,10.36377,3.56348,20.7063c1.22705,6.89477,2.45727,13.78906,3.80126,20.66064,1.344,6.87085,2.75513,13.731,4.41993,20.52564.84912,3.39062,1.72632,6.78247,2.88549,10.06811.29908.81616.60157,1.63306.96265,2.4165a8.87047,8.87047,0,0,0,1.28613,2.1648,1.66553,1.66553,0,0,0,.42432.32446c.18018.06519.39648.1084.59253.16455a11.04655,11.04655,0,0,0,1.26025.24292c.8501.15625,1.72681.2273,2.58912.34522,6.95581.71264,13.956,1.12671,20.95,1.47656q10.4945.52221,20.99658.904,21.00475.724,42.01758,1.177l21.01172.41285,10.50439.14087,5.24878.04028c1.73486-.00977,3.52978.04932,5.17016-.09961a84.83692,84.83692,0,0,0,10.14551-2.23c3.36963-.90625,6.71875-1.9021,10.04932-2.95532q9.99279-3.15858,19.72681-7.05982a168.728,168.728,0,0,0,18.94409-8.82422,71.91082,71.91082,0,0,0,8.73437-5.61035,24.64177,24.64177,0,0,0,6.83594-7.39258l-.07861.26172q1.623-14.25074,2.61621-28.59936c.63867-9.55347,1.04687-19.127.971-28.69654q-.0381-7.177-.60669-14.3291c-.0564-1.19568-.24927-2.37414-.37623-3.56128-.1499-1.18359-.26391-2.37426-.44335-3.55273l-.65845-3.51318c-.11987-.56763-.197-1.212-.35156-1.71692a3.35846,3.35846,0,0,0-2.24878-2.15186,4.69668,4.69668,0,0,0-1.67041-.11682l-3.594.12231-7.18774.24451-14.37549.489a.079.079,0,0,1-.00708-.15783l14.36206-.79126,7.18115-.39563,3.59033-.19788a5.22973,5.22973,0,0,1,1.89747.11035,4.10069,4.10069,0,0,1,2.77294,2.59961c.20044.64075.25855,1.19568.39478,1.798l.70605,3.5476c.19458,1.18811.323,2.38477.4878,3.57715.14136,1.19446.34912,2.38428.41919,3.58448q.65368,7.18486.77246,14.39587c.18432,9.60742-.11719,19.21216-.64966,28.79809-.5376,9.58887-1.30591,19.1543-2.41113,28.7063l-.0022.01807a.6876.6876,0,0,1-.07666.2439,26.082,26.082,0,0,1-7.28,7.96191,73.46249,73.46249,0,0,1-8.92236,5.7583,166.03935,166.03935,0,0,1-19.12525,8.93921q-9.80712,3.87927-19.8789,7.00317c-3.35474,1.04248-6.728,2.02735-10.12891,2.92408a85.66589,85.66589,0,0,1-10.38086,2.22046c-1.85058.15478-3.56714.07739-5.333.08129l-5.26-.08374-10.511-.25439-21.01343-.63965q-21.011-.69982-42.01172-1.64014-10.50147-.44238-20.999-.99267c-6.99634-.41333-13.99683-.72217-20.98462-1.417-.87354-.11426-1.7461-.17969-2.62061-.33448a11.5152,11.5152,0,0,1-1.3186-.2478c-.22388-.06323-.44214-.10425-.67066-.1875a2.18893,2.18893,0,0,1-.62207-.45654,9.31631,9.31631,0,0,1-1.40991-2.3208c-.37646-.80591-.6875-1.63159-.9956-2.458-1.18726-3.31836-2.13794-6.69971-3.032-10.093-1.76611-6.79248-3.28027-13.64136-4.719-20.50342-2.88574-13.72338-5.36816-27.52319-7.72119-41.34155-1.18262-6.90869-2.26441-13.83349-3.34668-20.7583a17.38083,17.38083,0,0,1,1.30322-10.63806,19.58119,19.58119,0,0,1,3.02515-4.48389,29.25475,29.25475,0,0,1,3.87182-3.70764l-.06762.063,8.76587-9.43909-.13159.25232q1.42528-6.3717,2.58325-12.81335c.37744-2.14527.727-4.29493,1.02417-6.44971.14966-1.07751.27612-2.15637.38965-3.23608l.13818-1.61976a11.00853,11.00853,0,0,1,.23413-1.67651,9.4838,9.4838,0,0,1,3.65674-5.54736,9.74717,9.74717,0,0,1,6.33349-1.80078l13.09766.00293a.079.079,0,0,1,.00171.158Z"/><polygon points="183.145 224.975 192.459 224.783 201.773 224.673 220.402 224.581 239.03 224.671 248.344 224.782 257.658 224.975 248.344 225.169 239.03 225.279 220.402 225.37 201.773 225.278 192.459 225.167 183.145 224.975"/><path d="M307.90228,272.75462l8.96679-1.12293,8.97461-1.04687,17.95972-1.98669,17.97363-1.85022,17.98389-1.767c-2.97876.45044-5.96485.85132-8.94946,1.2594l-8.96778,1.11157c-5.98071.72192-11.97046,1.36133-17.95679,2.03088-5.99316.60462-11.98266,1.24219-17.98022,1.80371l-8.9978.82727Z"/><path d="M264.29412,227.06077c1.88086,3.08154,3.68579,6.20471,5.479,9.33435,1.79517,3.12866,3.52784,6.29151,5.29468,9.43567,1.71094,3.17493,3.45191,6.33338,5.13477,9.52368,1.68213,3.19068,3.35351,6.38733,4.94775,9.62647-1.88183-3.08094-3.68652-6.20423-5.48022-9.33362-1.79322-3.12964-3.52857-6.29114-5.2937-9.43628-1.709-3.1759-3.45215-6.33313-5.1333-9.52441C267.56048,233.4962,265.88934,230.2993,264.29412,227.06077Z"/><path d="M264.29412,222.51036a33.99553,33.99553,0,0,1,5.09131-2.08155,33.59515,33.59515,0,0,1,5.33667-1.33117,33.59787,33.59787,0,0,1-5.09106,2.08154A33.99806,33.99806,0,0,1,264.29412,222.51036Z"/><path d="M173.09612,250.57139c-.10473,1.38989-.29443,2.76331-.49707,4.13416-.1936,1.37268-.44824,2.7334-.70312,4.09411-.27344,1.35706-.54834,2.71387-.8833,4.059-.32715,1.34668-.66626,2.69092-1.092,4.01831.10351-1.39013.29345-2.76355.4956-4.13452.19434-1.37243.44873-2.73327.70459-4.09375.27442-1.35681.54907-2.71374.88452-4.05871C172.332,253.24327,172.67156,251.899,173.09612,250.57139Z"/><path d="M157.38592,268.28733a38.53375,38.53375,0,0,1,7.61963-1.4364,13.445,13.445,0,0,1,3.89526.20752,4.67556,4.67556,0,0,1,1.81787.80933,2.90467,2.90467,0,0,1,1.05664,1.70691c1.12818,5.07361,1.97608,10.16235,2.89453,15.25586,1.78052,10.189,3.39283,20.40527,4.95728,30.62915,1.49731,10.23388,2.95117,20.47558,4.15015,30.75122.59082,5.13843,1.14282,10.28247,1.56274,15.43945.19727,2.57935.36328,5.16211.449,7.74829.02881,1.29322.07666,2.58716.02662,3.88111-.01172.647-.03077,1.2937-.10572,1.9375a11.04284,11.04284,0,0,1-.31421,1.91162,11.02488,11.02488,0,0,0,.26612-1.91577c.05859-.64307.06152-1.28882.05737-1.93482.01782-1.29053-.06226-2.582-.12329-3.87109-.1499-2.57886-.37988-5.15259-.64087-7.72266-.49878-5.14282-1.11694-10.27441-1.78076-15.3999q-1.9845-15.37683-4.32739-30.708c-1.49854-10.22925-3.12207-20.43994-4.77344-30.64526-.84278-5.09424-1.63306-10.22156-2.66968-15.25928a2.53343,2.53343,0,0,0-.89526-1.542,4.37019,4.37019,0,0,0-1.67774-.79224,13.222,13.222,0,0,0-3.81445-.29516A38.44126,38.44126,0,0,0,157.38592,268.28733Z"/><path d="M302.20721,381.41307c.32739-.01856.5166-.333.66333-.58667a5.228,5.228,0,0,0,.3518-.85694,16.29258,16.29258,0,0,0,.4563-1.79736c.24488-1.21314.42163-2.439.575-3.667.303-2.457.51026-4.925.687-7.39429.34594-4.9397.55688-9.88843.72021-14.83765.35132-9.89819.50952-19.80346.55957-29.70825.04273-9.90454-.01147-19.811-.24878-29.71069-.15234-4.93994-.228-9.91944-.73657-14.8009a10.77206,10.77206,0,0,0-2.89282-6.42945,9.03914,9.03914,0,0,0-6.44678-2.56286,9.64311,9.64311,0,0,0-6.44629,2.66735,10.16118,10.16118,0,0,0-3.10815,6.30848,97.673,97.673,0,0,0-.86084,14.76611c.02124,9.91553-.20264,19.81909-.28907,29.72485-.095,9.90479-.12109,19.81177.20435,29.709.15063,4.948.3855,9.89673.89185,14.821a74.081,74.081,0,0,0,1.0725,7.34229c.53882,2.38427,1.08106,4.91577,2.71607,6.81836-1.66138-1.88282-2.24024-4.41675-2.81055-6.79786a74.20787,74.20787,0,0,1-1.17016-7.34155c-.57129-4.92554-.87085-9.87695-1.08619-14.82812-.3811-9.906-.39135-19.81909-.34326-29.72705.04224-9.908.22168-19.8169.156-29.71631a98.30767,98.30767,0,0,1,.80249-14.8794,10.91472,10.91472,0,0,1,3.30371-6.75061,10.38887,10.38887,0,0,1,6.95557-2.90478,9.80669,9.80669,0,0,1,6.99,2.81457,11.503,11.503,0,0,1,3.07763,6.87342c.28443,2.49426.36426,4.965.46949,7.44519.09253,2.478.15625,4.95581.207,7.43335.19311,9.9104.20337,19.82031.11645,29.72924-.09741,9.9087-.28955,19.81763-.69922,29.71949-.22778,4.95-.50268,9.89868-.91259,14.83764-.209,2.46875-.44849,4.936-.78345,7.39185-.16944,1.22729-.36231,2.45239-.62305,3.66431a16.28474,16.28474,0,0,1-.48071,1.79541,5.25,5.25,0,0,1-.364.85473C302.73064,381.08494,302.53558,381.39891,302.20721,381.41307Z"/><path d="M287.42547,381.41331c.80591,3.69458,1.55957,7.39551,2.39892,11.07861.79175,3.6919,1.60669,7.37769,2.48926,11.04468.89868,3.66236,1.77027,7.33008,2.81763,10.938.52319,1.80249,1.05908,3.60034,1.69409,5.34717.31592.873.65918,1.73266,1.04688,2.55029a11.36779,11.36779,0,0,0,.63208,1.15991,3.069,3.069,0,0,0,.70312.843c.04932.03247.084.04346.10938.0625.00634-.01343.01538.01367-.002-.00195-.02954.02685.02588-.01465.117-.09229a3.62642,3.62642,0,0,0,.52929-.98633,20.64343,20.64343,0,0,0,.71265-2.63159c.458-1.80615.75928-3.65747,1.07812-5.50146.63184-3.69532.96216-7.44458,1.28956-11.19312.30395-3.75195.48046-7.519.56958-11.28979.13671-3.77149.13916-7.54663.12011-11.32764.377,3.76416.52881,7.5459.6543,11.32959q.10181,5.677-.13086,11.36231a108.86945,108.86945,0,0,1-1.02417,11.34643c-.105.94605-.31592,1.87964-.47144,2.81982-.15112.94117-.363,1.87378-.58178,2.80542a21.6664,21.6664,0,0,1-.75611,2.83643,4.93116,4.93116,0,0,1-.82519,1.48584,2.93368,2.93368,0,0,1-.43262.3667,1.60316,1.60316,0,0,1-1.34619.16919,2.412,2.412,0,0,1-.5144-.26587,4.42845,4.42845,0,0,1-1.125-1.2981,12.85418,12.85418,0,0,1-.71534-1.33007c-.416-.89209-.76684-1.792-1.08789-2.69678-.63818-1.81055-1.18847-3.63355-1.68042-5.46948-.97119-3.67359-1.833-7.3628-2.562-11.07813q-1.11217-5.56786-2.06372-11.15918C288.48382,388.90037,287.88055,385.16819,287.42547,381.41331Z"/><path d="M196.77947,377.12889c-.45483,3.75488-1.05835,7.48706-1.64282,11.22412q-.954,5.59131-2.06372,11.15918c-.729,3.71533-1.59082,7.40478-2.562,11.07812-.492,1.83594-1.042,3.65918-1.68042,5.46948-.32105.90479-.67188,1.80469-1.08765,2.69678a12.94744,12.94744,0,0,1-.71533,1.33008,4.4337,4.4337,0,0,1-1.12524,1.2981,2.40112,2.40112,0,0,1-.51441.26587,1.60346,1.60346,0,0,1-1.34619-.16919,2.94562,2.94562,0,0,1-.43262-.3667,4.93541,4.93541,0,0,1-.82519-1.4856,21.6353,21.6353,0,0,1-.75586-2.83642c-.219-.93189-.43067-1.86426-.582-2.80542-.15528-.94019-.36646-1.874-.47144-2.81983a108.87165,108.87165,0,0,1-1.02392-11.34643q-.23767-5.6836-.13111-11.36255c.12573-3.78345.27759-7.56543.6543-11.32959-.0188,3.781-.0166,7.55615.12036,11.32763.08887,3.77076.26538,7.53785.56934,11.29.32739,3.74829.65771,7.49781,1.28979,11.19312.3186,1.84375.61987,3.69507,1.07788,5.50146a20.681,20.681,0,0,0,.71265,2.63135,3.6227,3.6227,0,0,0,.52954.98633c.09082.07788.14648.11914.11694.09228-.01758.01563-.00854-.01123-.00195.002.02515-.019.05981-.02979.10937-.0625a3.07175,3.07175,0,0,0,.70289-.84278,11.39945,11.39945,0,0,0,.63208-1.16015c.38793-.81763.731-1.67725,1.04687-2.5503.635-1.74682,1.1709-3.54467,1.69409-5.34716,1.04737-3.60791,1.919-7.27564,2.81787-10.938.88257-3.66675,1.69727-7.35279,2.489-11.04468C195.2199,384.52439,195.97381,380.82347,196.77947,377.12889Z"/><path d="M370.79461,358.321l1.84448,7.96313c.596,2.655,1.20606,5.30591,1.87183,7.93921.68554,2.626,1.32348,5.26758,2.15429,7.82226a19.23344,19.23344,0,0,0,1.45337,3.59791,2.59438,2.59438,0,0,0,.2212.29663c.06469.08129.12793.09155.03295.05957a.394.394,0,0,0-.22314.0144c-.052.00977-.084.053-.07349.03638a1.22183,1.22183,0,0,0,.12329-.21533,8.13122,8.13122,0,0,0,.4502-1.77173c.22461-1.29053.33374-2.63111.44141-3.988q.17284-2.02843.30957-4.05908c.22412-2.70557.32544-5.41675.47778-8.12744q.19153-4.0675.16235-8.14209c.02539-2.71778-.05517-5.43457-.27978-8.15186a87.04937,87.04937,0,0,1,1.33252,16.31714c.02636,2.73364-.06836,5.46655-.19971,8.19556-.05835,1.36548-.16479,2.72729-.26367,4.08984-.09693,1.35742-.19092,2.73657-.42407,4.13184a9.30114,9.30114,0,0,1-.59253,2.16626,2.4116,2.4116,0,0,1-.4231.64111,1.40179,1.40179,0,0,1-.48413.32788,1.15856,1.15856,0,0,1-.72314.03687,1.65054,1.65054,0,0,1-.78711-.51978,4.09176,4.09176,0,0,1-.38623-.52246,18.834,18.834,0,0,1-1.56958-3.97217c-.76563-2.65356-1.39209-5.31421-1.90967-7.99853q-.78808-4.0221-1.44751-8.05811C371.49383,363.72972,371.07732,361.03563,370.79461,358.321Z"/><path d="M270.59832,163.92381a5.76334,5.76334,0,0,1,2.91553-1.0022,4.56065,4.56065,0,0,1,1.58008.14893,2.49718,2.49718,0,0,1,1.33471.85327,5.53419,5.53419,0,0,0-1.44018-.24585,11.11082,11.11082,0,0,0-1.42163.03137C272.60662,163.76219,271.64471,163.90489,270.59832,163.92381Z"/><path d="M275.00662,168.095a1.18572,1.18572,0,0,0,0-2.37,1.18572,1.18572,0,0,0,0,2.37Z"/><path d="M245.89227,180.85057a25.76655,25.76655,0,0,1,.1123,3.828,27.48441,27.48441,0,0,1-.396,3.82031,14.98236,14.98236,0,0,1-1.11547,3.71253,5.99546,5.99546,0,0,1-1.10206,1.64135,2.17859,2.17859,0,0,1-1.80249.66883,2.15027,2.15027,0,0,0,1.51416-.92737,5.65811,5.65811,0,0,0,.83033-1.6189,23.29919,23.29919,0,0,0,.89868-3.6167c.22974-1.23205.39038-2.48047.57031-3.7312Z"/><path d="M381.46111,237.67613a1.53608,1.53608,0,0,1,1.94361-.51465,1.62541,1.62541,0,0,1,.78735.81409,3.09794,3.09794,0,0,1,.19312,1.09875,6.80135,6.80135,0,0,1-1.366,4.07971l-.07251-.4851a4.68218,4.68218,0,0,1,1.3269,1.60119,4.88842,4.88842,0,0,1,.52759,2.00366,5.80583,5.80583,0,0,1-.32349,2.0271c-.10864.322-.26391.62207-.39477.93287l-.49854.869.03321-.32641a10.51543,10.51543,0,0,1,.52588,2.36877,3.84791,3.84791,0,0,1-.43262,2.468l.04517-.16687a7.71376,7.71376,0,0,1-.248,1.68811,7.54636,7.54636,0,0,1-.594,1.57373,6.48807,6.48807,0,0,1-2.19287,2.458,7.55978,7.55978,0,0,0,1.08838-1.207,6.248,6.248,0,0,0,.76587-1.40747,7.62224,7.62224,0,0,0,.59082-3.08545.29471.29471,0,0,1,.03369-.14539l.01148-.02185a3.67772,3.67772,0,0,0,.24536-2.08215,9.8407,9.8407,0,0,0-.532-2.18067.37736.37736,0,0,1,.02319-.30859l.01-.01819.44336-.81164c.11011-.28394.2478-.55982.3374-.84778a5.8459,5.8459,0,0,0,.30347-1.75513,4.15008,4.15008,0,0,0-.41065-1.70129,4.04452,4.04452,0,0,0-1.07592-1.37l-.01954-.01575a.33539.33539,0,0,1-.053-.4696,6.52833,6.52833,0,0,0,1.46411-3.667,3.28914,3.28914,0,0,0-.08863-.968,1.322,1.322,0,0,0-.571-.72266A1.45414,1.45414,0,0,0,381.46111,237.67613Z"/><path d="M356.03118,250.28611a5.90422,5.90422,0,0,0,2.50049-2.032,4.25376,4.25376,0,0,0,.61816-1.42065,4.83252,4.83252,0,0,0,.12159-.767c.03759-.26843.05786-.57752.10839-.86047a8.8807,8.8807,0,0,1,1.23414-3.24561,7.75029,7.75029,0,0,1,1.07861-1.36951,4.13839,4.13839,0,0,1,.68066-.56653,1.5406,1.5406,0,0,1,.8877-.32849l.01269.00025a.1482.1482,0,0,1,.144.12561c.07641.49792.16626.99487.22338,1.50439-.196-.47046-.35961-.95349-.53637-1.43542l.15649.12561a2.71184,2.71184,0,0,0-1.15185.95312,9.55452,9.55452,0,0,0-.88721,1.34632,10.62914,10.62914,0,0,0-1.07935,3.02368c-.05249.26709-.07226.51806-.11718.80322a4.95079,4.95079,0,0,1-.18921.88037,4.25513,4.25513,0,0,1-.84375,1.57776A4.99926,4.99926,0,0,1,356.03118,250.28611Z"/><path d="M372.27166,251.32969a6.738,6.738,0,0,1,.97632.99451,4.45087,4.45087,0,0,0,.91968.90149.99412.99412,0,0,1-.8335.08435,1.58144,1.58144,0,0,1-.68921-.47632A1.70158,1.70158,0,0,1,372.27166,251.32969Z"/><path d="M375.77947,255.027c.33374.47107.52881.84472.75635,1.20215.21167.37048.44189.67395.76025,1.16784a1.48283,1.48283,0,0,1-1.435-.75781A1.61577,1.61577,0,0,1,375.77947,255.027Z"/><path d="M375.21062,250.85569l7.58252-8.52026a.39527.39527,0,0,1,.59058.52551l-.0188.01978Z"/><path d="M379.14471,253.22569,383.02093,249.6a.39611.39611,0,0,1,.54126.57849.44444.44444,0,0,1-.0459.037Z"/><path d="M380.80389,256.21189a3.14775,3.14775,0,0,1,1.10937-1.20629,3.11464,3.11464,0,0,1,1.54492-.54749,3.112,3.112,0,0,1-1.10962,1.2063A3.148,3.148,0,0,1,380.80389,256.21189Z"/><path d="M383.73821,253.2191c.0459-.18286.21265-.15931.30616-.14478l.2373.11194c.14624.08643.2688.19128.405.28711.25317.20666.48633.42993.72705.6488.449.46167.89966.92627,1.31665,1.41443.86133.95777,1.66553,1.95825,2.47559,2.9552,1.59643,2.01111,3.12329,4.07349,4.63159,6.14673,3.04785,4.1272,5.87231,8.40491,8.74853,12.64575,1.43213,2.12415,2.81739,4.27991,4.19239,6.441q2.076,3.23255,4.07544,6.51416c2.69433,4.35449,5.302,8.76465,8.05908,13.07959,2.698,4.353,5.51733,8.627,8.27295,12.947q2.09142,3.22486,4.1018,6.51123c.63965,1.1189,1.32764,2.20313,1.90454,3.37159a18.52792,18.52792,0,0,1,.85108,1.76513c.12768.30493.26758.60279.38452.91455l.28955.97754a5.021,5.021,0,0,1,.18311,1.03174,4.37687,4.37687,0,0,1,.04931.532l-.04516.54981a3.70354,3.70354,0,0,1-.23243,1.06738,5.4524,5.4524,0,0,1-.41333.96851,12.91055,12.91055,0,0,1-2.3684,3.26,52.25925,52.25925,0,0,1-5.99781,4.96923c-4.16723,3.04224-8.47387,5.8357-12.91528,8.44507l.39063-.86206c.32983,1.824.59545,3.63306.781,5.47852.084.92407.16333,1.84765.165,2.79883a12.27417,12.27417,0,0,1-.06348,1.45532,4.1871,4.1871,0,0,1-.45239,1.63647,1.39074,1.39074,0,0,1-.57764.4917,2.98289,2.98289,0,0,1-.42553.17163,6.87766,6.87766,0,0,1-.74414.18872c-.47974.09717-.94532.16236-1.40992.21973-.92724.11084-1.845.18311-2.762.2417-1.83349.116-3.66015.17749-5.48608.22119-3.65137.09912-7.29932.04346-10.94434-.00049-3.64526-.04419-7.28857-.20117-10.93017-.34594a.07916.07916,0,0,1-.07593-.08228.08022.08022,0,0,1,.07788-.07568l10.92212-.31861c3.63867-.10083,7.2749-.27221,10.90332-.43994,1.81323-.0935,3.62524-.20483,5.42358-.36865.89844-.08228,1.79444-.178,2.67261-.30762.43726-.0664.87256-.14038,1.28272-.23559a5.47256,5.47256,0,0,0,.57519-.16138,1.46647,1.46647,0,0,0,.20508-.08814c.06787-.0205.04077-.06274-.04468.0774a3.517,3.517,0,0,0,.21436-.99341,10.76849,10.76849,0,0,0,.04638-1.27173c-.00586-.87085-.08691-1.76392-.17309-2.6521-.18872-1.77759-.46338-3.573-.79224-5.33105a.82571.82571,0,0,1,.38159-.85694l.009-.00537c4.34961-2.63989,8.68945-5.35107,12.845-8.27637a51.23314,51.23314,0,0,0,5.897-4.7268,11.43909,11.43909,0,0,0,2.20508-2.865,4.21449,4.21449,0,0,0,.44433-3.262,32.96472,32.96472,0,0,0-3.04223-6.85156c-1.23682-2.2312-2.5354-4.43481-3.84766-6.6311q-3.99279-6.55518-8.21045-12.977c-2.77637-4.30176-5.70361-8.50708-8.54126-12.77027q-2.1621-3.17467-4.25293-6.39233c-1.39624-2.14453-2.84228-4.25513-4.20825-6.41894l-4.19629-6.42481-4.24731-6.38806c-1.41089-2.13306-2.86939-4.23169-4.34156-6.31909-.7395-1.04-1.47534-2.08692-2.2644-3.08655-.38159-.51318-.7981-.9906-1.20435-1.48145-.21411-.23034-.42553-.46984-.65014-.68774-.11743-.098-.23169-.21289-.353-.29932l-.18774-.11132-.09449-.012a.079.079,0,0,1-.15747-.0133Z"/><path d="M384.91717,331.32811c4.13891,5.8059,7.86352,11.85156,11.488,17.95825l2.66625,4.61084.63135,1.123a.432.432,0,0,0-.20605-.185c-.1023-.03443-.04688-.02442-.08032-.03394-.03565-.00757-.05469.00244-.00782-.00317a1.063,1.063,0,0,0,.21534-.021,5.27429,5.27429,0,0,0,.57543-.12964c.80445-.22485,1.6377-.52588,2.46119-.82324,3.29028-1.25464,6.58276-2.60816,9.90136-3.9021a87.76682,87.76682,0,0,1-9.43432,5.04321,23.38581,23.38581,0,0,1-2.53833,1.0105,6.67526,6.67526,0,0,1-.71607.19141,2.40733,2.40733,0,0,1-.44482.05688,1.102,1.102,0,0,1-.33765-.0271.70164.70164,0,0,1-.23779-.07739,1.09012,1.09012,0,0,1-.33862-.28613l-.72608-1.167-2.73877-4.57055C391.46722,343.96067,387.98528,337.76438,384.91717,331.32811Z"/><path d="M395.6212,392.9861a11.59944,11.59944,0,0,1,3.12011,4.72c-3.62011,1.13013-17.16015,1.53-18.22021-6.07a27.87683,27.87683,0,0,1,0-6.77c1.83008.67005,3.60986,1.41,5.37988,2.18006a52.33036,52.33036,0,0,1,5.13037,2.57995A24.49069,24.49069,0,0,1,395.6212,392.9861Z"/><path d="M446.51133,390.07619h-.01025c-.77.23-1.52979.37988-2.29.59985-.73975.25-1.5.42005-2.21973.71008a20.635,20.635,0,0,0-7.82031,4.74,16.604,16.604,0,0,0-2.84961,3.68006c4.44971.21,8.46.02,10.43994-.97C445.54112,396.94606,454.25108,394.09609,446.51133,390.07619Zm-9.22021,2.38989a17.53966,17.53966,0,0,1,4.47021-1.83,23.96174,23.96174,0,0,1,2.35987-.45007c.7998-.04993,1.58007-.09985,2.37988-.10986a48.26724,48.26724,0,0,0-9.48-3.31006c-21.98975-5.81006-32.62012-24.81006-32.62012-24.81006h-22.5498c.81,10.06006-.76026,17-1.33008,22.91a31.857,31.857,0,0,1,5.66992,1.45008,32.53771,32.53771,0,0,1,5.34033,2.45,19.46292,19.46292,0,0,1,4.6499,3.67993,9.6034,9.6034,0,0,1,2.56006,5.26c3.61963-1.13989,11.84961-.54,17.23.37012a132.58515,132.58515,0,0,0,15.3501,1.73,10.97761,10.97761,0,0,1,2.27979-4.20007A15.22716,15.22716,0,0,1,437.29112,392.46608Zm-53.35987-19.40991a20.1153,20.1153,0,0,1-.5-4.74,20.64115,20.64115,0,0,1,.5-4.74,20.11334,20.11334,0,0,1,.5,4.74A19.614,19.614,0,0,1,383.93125,373.05617Zm2.79981,1.87988a22.71751,22.71751,0,0,1,0-9.48,22.71751,22.71751,0,0,1,0,9.48Zm2.8999-1.01a19.61311,19.61311,0,0,1-.5-4.74,20.1153,20.1153,0,0,1,.5-4.74,22.71751,22.71751,0,0,1,0,9.48Zm3.69043,1.01a22.71751,22.71751,0,0,1,0-9.48,22.71751,22.71751,0,0,1,0,9.48Zm2.97949-1.87988a22.71751,22.71751,0,0,1,0-9.48,22.71751,22.71751,0,0,1,0,9.48Zm3.7002.86987a19.61311,19.61311,0,0,1-.5-4.74,20.64211,20.64211,0,0,1,.5-4.74,20.64266,20.64266,0,0,1,.5,4.74A20.11386,20.11386,0,0,1,400.00108,373.926Zm3.5498,0a23.18307,23.18307,0,0,1,0-9.48,22.71751,22.71751,0,0,1,0,9.48Z"/><path d="M440.98106,366.29616a24.6548,24.6548,0,0,0-5.5-.1001,51.70807,51.70807,0,0,0-5.5.8c-1.83008.38-3.64014.78-5.46973,1.27a27.11391,27.11391,0,0,0,3.75977,5.36c5.06982,5.43006,15.58008-2.42,17.81006-5.34A11.34557,11.34557,0,0,0,440.98106,366.29616Zm38.70019-30.64c-.47021.62-1,1.16-1.47021,1.75-.44971.62-.96,1.18006-1.37012,1.80994a22.27489,22.27489,0,0,0-1.19971,1.89,19.41485,19.41485,0,0,0-1.03027,1.97009,20.26322,20.26322,0,0,0-1.31982,4.24,16.09889,16.09889,0,0,0-.21973,4.5,10.50363,10.50363,0,0,1-.55029-4.6001,14.63008,14.63008,0,0,1,1.18017-4.54,16.7729,16.7729,0,0,1,2.52979-3.93994,19.525,19.525,0,0,1,1.62012-1.65991c.60009-.49,1.21-.97009,1.83007-1.42005a47.33231,47.33231,0,0,0-9.35009,2.66c-20.66016,7.63989-39.66016-1.5-39.66016-1.5L412.80088,349.3661c6.25,7.53,8.87012,13.89,11.7002,18.9h.01025a29.14552,29.14552,0,0,1,5.28955-2.02,30.22176,30.22176,0,0,1,5.6001-1.04,18.73493,18.73493,0,0,1,5.73.33008,9.24815,9.24815,0,0,1,4.9502,2.75c2.24023-2.91,9.08984-7.02,13.87011-9.29,6.04981-2.88,18.58985-9.55,20.84961-13.75C482.74131,341.64613,488.06114,334.53615,479.68125,335.65614Zm-62.10009,17.88a19.39133,19.39133,0,0,1-2.23-4.05,18.83023,18.83023,0,0,1,3.0498,3.47,18.4978,18.4978,0,0,1,2.23,4.05A19.622,19.622,0,0,1,417.58116,353.53615Zm3.27-.07007a19.17463,19.17463,0,0,1-2.23-4.05,19.6034,19.6034,0,0,1,3.0498,3.47009,19.29327,19.29327,0,0,1,2.23,4.03992A18.46707,18.46707,0,0,1,420.85118,353.46608Zm1.73-2.40991a19.64717,19.64717,0,0,1-2.23-4.05,19.21828,19.21828,0,0,1,3.0498,3.47,18.83945,18.83945,0,0,1,2.23,4.04A18.84426,18.84426,0,0,1,422.58116,351.05617Zm3.48-1.26a18.84709,18.84709,0,0,1-2.22022-4.04,21.49188,21.49188,0,0,1,5.27,7.51A19.27464,19.27464,0,0,1,426.06114,349.79616Zm1.33007-3.15a18.42414,18.42414,0,0,1-2.23-4.04,21.49489,21.49489,0,0,1,5.27,7.51A18.82939,18.82939,0,0,1,427.39121,346.64613Zm3.40967-1.37a18.85894,18.85894,0,0,1-2.22949-4.04,21.34962,21.34962,0,0,1,5.27979,7.51A18.22091,18.22091,0,0,1,430.80088,345.27614Zm2.82032-1.98a18.42658,18.42658,0,0,1-2.23-4.04,19.1793,19.1793,0,0,1,3.04,3.47,18.46676,18.46676,0,0,1,2.23,4.04A18.50919,18.50919,0,0,1,433.6212,343.29616Z"/><path d="M258.21111,177.38035a7.13584,7.13584,0,0,1-2.48047-13.83008c-.31835-5.20117-.44238-12.25879.707-16.89843a.39483.39483,0,1,1,.7666.18945c-1.12354,4.53711-1.00049,11.49414-.68653,16.63672a.39556.39556,0,0,1-.13379.6875,6.337,6.337,0,1,0,2.85254-.18946.39486.39486,0,0,1-.32959-.36425c-.42724-6.65137-.248-13.98633.42627-17.44043a.39492.39492,0,1,1,.77539.15039c-.65283,3.34472-.83154,10.42383-.43261,16.93359a7.13883,7.13883,0,0,1-1.46485,14.125Z"/><path d="M256.82146,147.14207a.40019.40019,0,0,1-.09521-.01172.39567.39567,0,0,1-.28857-.47851c.61474-2.49414,1.50781-3.99512,2.73046-4.59082,2.77881-1.34571,4.93018,2.2666,5.84913,3.81152.09521.15918.1748.29394.23828.39258a.4.4,0,0,1,.09082.251.39479.39479,0,0,1-.395.39454h-3.8003a.39494.39494,0,0,1-.334-.1836,1.95133,1.95133,0,0,1-.21582-.41113c-.04395-.10742-.07617-.18555-.14014-.32813a.15792.15792,0,0,0-.15625-.08886.15266.15266,0,0,0-.13916.126l-.05615.292a.3992.3992,0,0,1-.459.31835.39468.39468,0,0,1-.31836-.459l.05615-.292a.94608.94608,0,0,1,1.7915-.22266c.07129.15625.10645.24219.13233.30664.02441.0625.04345.10742.06592.15332h2.86767c-.853-1.42871-2.68066-4.3457-4.73242-3.34961-.98438.47852-1.76123,1.84766-2.30908,4.06934A.39517.39517,0,0,1,256.82146,147.14207Z"/><path d="M393.31742,126.37829v92.72H510.67728v-92.72Zm111.41992,86.17994h-105.48v-79.63h105.48Z"/><path d="M410.14715,140.88731l.16431,13.93555-.21436-.21436,19.62353-.14661-.36108.361-.04053-11.66028a.40018.40018,0,0,1,.39893-.40186h.00293l13.3667-.03821a.439.439,0,0,1,.43994.43763v.00244l-.02832,20.19226a.40857.40857,0,0,1-.40576.41174h-.00586l-21.61426-.15832.25317-.25318-.0603,9.385-.19287-.19287,15.64185.03821a.15579.15579,0,0,1,.15478.15112l.33081,11.65906-.20117-.19617,12.79785-.051a.25306.25306,0,0,1,.25244.25232l.0586,11.9447a.30928.30928,0,0,1-.30786.31091h-.00318l-40.10034.17993a.48859.48859,0,0,1-.49072-.48645v-.00439q-.0597-15.49987-.02491-30.99951a.5161.5161,0,0,1,.51563-.51575l5.688.00574a.50977.50977,0,0,1,.51.51c.00732,7.96313-.04224,15.92627-.09326,23.8894l-.41651-.41662,10.80689.06408-.35254.35254.05566-9.385a.29843.29843,0,0,1,.29712-.29712l6.25659.037a.25815.25815,0,0,1,.26026.25586v.00427l-.09058,10.807-.16943-.16956,10.80713.11975a.05.05,0,0,1,0,.1l-10.80713.11963a.16768.16768,0,0,1-.16968-.166v-.00378l-.09058-10.807.26.25989-6.25659.03711.29688-.297.05566,9.385a.3544.3544,0,0,1-.35278.35291l-10.80689.064a.41443.41443,0,0,1-.417-.41186v-.005c-.051-7.96313-.10059-15.92627-.093-23.8894l.50977.50976-5.688.00574.51562-.5155q.03442,15.49969-.0249,30.99951l-.49072-.49072,40.10034.17993-.31079.31079.05884-11.9447.25195.25219-12.79785-.051a.20224.20224,0,0,1-.20117-.19641l-.238-11.66138.15479.15088-15.64185.03821a.19338.19338,0,0,1-.19311-.19312l-.06031-9.385a.25452.25452,0,0,1,.25342-.25341l21.61426-.15833-.41162.4115-.02832-20.19226.43994.43994-13.3667-.03821.40161-.40173-.04053,11.66028a.35864.35864,0,0,1-.356.3612h-.00538l-19.62353-.1466a.21229.21229,0,0,1-.2146-.2096l.00024-.005.16431-13.93555a.05005.05005,0,0,1,.1001,0Z"/><path d="M419.4323,149.5615q-.13842-2.915-.21167-5.83007c-.03881-1.94349-.10351-3.88685-.12133-5.8302a.37948.37948,0,0,1,.376-.38318h.00708l7.46558-.064c2.48853.01868,4.97705.02625,7.46533.103,2.48853.04846,4.97705.14722,7.46558.16016,2.48852.04016,4.977.0321,7.46557.00415a.17788.17788,0,0,1,.17969.17443v.00538l.27417,15.14428.06568,7.572c.02417,2.52405-.00782,5.0481-.009,7.57215a.51032.51032,0,0,1-.5105.51062c-3.6499.00891-7.29956-.08509-10.94946-.13135-3.6499-.07983-7.29956-.18079-10.94946-.3291a.0501.0501,0,0,1,0-.1001c3.6499-.14831,7.29956-.24914,10.94946-.3291,3.6499-.04627,7.29956-.14026,10.94946-.13135l-.51049.51038c-.00122-2.52405-.03321-5.0481-.009-7.57215l.06568-7.572.27417-15.14428.17968.17956c-2.48852-.028-4.977-.036-7.46557.00415-2.48853.01294-4.97705.1117-7.46558.16016-2.48828.07678-4.9768.08435-7.46533.103l-7.46558-.064.38306-.38293c-.01807,1.94335-.08252,3.88671-.12158,5.8302q-.07434,2.915-.21143,5.83007a.05011.05011,0,0,1-.1001,0Z"/><path d="M410.0971,159.37339c2.14477-.12707,4.28979-.23474,6.43457-.29077,2.14478-.05261,4.28955-.14,6.43457-.15686q6.43432-.0996,12.86914-.00427l-.4519.45178c.01806-2.18042.10009-4.36072.157-6.54114.053-2.18042.16675-4.36084.29492-6.54126.12817,2.18042.24194,4.36084.29492,6.54126.05713,2.18042.13892,4.36072.157,6.54114a.44806.44806,0,0,1-.44166.45191l-.01025.00012q-6.43468.09192-12.86914-.00427c-2.145-.017-4.28979-.10425-6.43457-.157C414.38689,159.60813,412.24187,159.50047,410.0971,159.37339Z"/><path d="M421.04656,185.53831a19.84885,19.84885,0,0,1-.49975-4.69263,19.62217,19.62217,0,0,1,.49975-4.69262,19.62167,19.62167,0,0,1,.49976,4.69262A19.84886,19.84886,0,0,1,421.04656,185.53831Z"/><path d="M412.65667,137.95115l-7.96313.17.22-.22c.071,5.32067.165,10.64123.17627,15.96191.02417,5.32068.07421,10.64136.03051,15.962-.00537,5.32055-.11987,10.64123-.17895,15.96191q-.11024,7.981-.085,15.96191l-.16284-.16272c7.88427-.00512,15.76879-.149,23.65307-.21045,7.88428-.101,15.76856-.10913,23.65283-.15344a.52378.52378,0,0,1,.52686.521v.00586l-.00293,5.119a.523.523,0,0,1-.522.5238h-.002l-11.82641-.02161-11.82642-.11645L416.52,207.12718c-3.94214-.02417-7.88428-.14148-11.82641-.20886a.05.05,0,0,1,0-.1c3.94213-.06738,7.88427-.18469,11.82641-.20886l11.82666-.12683,11.82642-.11646,11.82641-.02148-.52343.52356-.00293-5.119.52636.52661c-7.88427-.04431-15.76855-.05249-23.65283-.15344-7.88428-.0614-15.7688-.20533-23.65307-.21045a.16238.16238,0,0,1-.16285-.16187v-.0011q.02746-7.981-.0852-15.96191c-.05884-5.32068-.17334-10.64136-.17871-15.96191-.0437-5.32068.0061-10.64136.03027-15.962.01148-5.32068.10523-10.64124.17627-15.96191l.00024-.00769a.21534.21534,0,0,1,.21827-.21253h.00171l7.96313.17a.05006.05006,0,0,1,0,.1001Z"/><path d="M414.83711,147.98053a1.5009,1.5009,0,0,0,0-3,1.5009,1.5009,0,0,0,0,3Z"/><path d="M439.4852,159.92537a1.5009,1.5009,0,0,0,0-3,1.5009,1.5009,0,0,0,0,3Z"/><path d="M414.83711,194.4327a1.5009,1.5009,0,0,0,0-3,1.5009,1.5009,0,0,0,0,3Z"/><path d="M420.14593,194.4327a1.5009,1.5009,0,0,0,0-3,1.5009,1.5009,0,0,0,0,3Z"/><path d="M401.94427,150.25574a1.5009,1.5009,0,0,0,0-3,1.5009,1.5009,0,0,0,0,3Z"/><path d="M451.99966,170.92221a1.5009,1.5009,0,0,0,0-3,1.5009,1.5009,0,0,0,0,3Z"/><path d="M452.47285,199.74152a1.5009,1.5009,0,0,0,0-3,1.5009,1.5009,0,0,0,0,3Z"/><path d="M423.93792,141.74046a17.196,17.196,0,0,1,.49976,4.36084,16.99989,16.99989,0,0,1-.49976,4.36084,16.99989,16.99989,0,0,1-.49976-4.36084A17.196,17.196,0,0,1,423.93792,141.74046Z"/><path d="M441.99993,172.74021c.17407,2.37.24487,4.74.324,7.11l-.37378-.3739c2.21191-.021,4.42383-.08618,6.636-.0708,2.21192.01269,4.42383.12549,6.63575.20019l-.24439.24451c.14307-3.49585.104-6.99158-.02026-10.4873-.1377-3.49573-.198-6.99146-.23682-10.48731q-.09155-5.24359.04785-10.48718c.072-3.49585.18653-6.99158.40381-10.48731a.05015.05015,0,0,1,.1001,0c.21728,3.49573.33179,6.99146.40381,10.48731q.13367,5.24359.0476,10.48718c-.03857,3.49585-.09887,6.99158-.23657,10.48731-.12451,3.49572-.16333,6.99145-.02026,10.4873a.23472.23472,0,0,1-.22486.2439l-.0017.00012-.01831.00061c-2.21192.07471-4.42383.18738-6.63575.20019-2.21215.01526-4.42407-.0498-6.636-.0708l-.01587-.00024a.36183.36183,0,0,1-.3584-.36523l.00024-.00855c.07911-2.37.14991-4.74.324-7.11a.05006.05006,0,0,1,.09985,0Z"/><path d="M445.36272,174.35179a10.12723,10.12723,0,0,1,3.31861-.49964,10.01155,10.01155,0,0,1,3.31836.49964,10.012,10.012,0,0,1-3.31836.49975A10.12393,10.12393,0,0,1,445.36272,174.35179Z"/><path d="M455.2221,183.263c.39307,3.93421.4834,7.86841.49976,11.80261-.01416,3.93421-.10425,7.86853-.49976,11.80274-.39551-3.93421-.4856-7.86853-.49976-11.80274C454.73846,191.13145,454.82879,187.19725,455.2221,183.263Z"/><path d="M498.86565,162.25279c-5.72094.16284-11.59033.29944-17.50927.34839-2.95142.047-5.92408.05542-8.89673.02917-2.97144-.01709-5.94263-.10107-8.895-.15625l-.011-.00024a.25045.25045,0,0,1-.24585-.25525v-.00134c.03882-1.62732.06958-3.25477.07569-4.88221.00586-1.62732.04492-3.25476.02343-4.88208q-.01207-4.88214-.11621-9.7644a.26836.26836,0,0,1,.2627-.27356l.01123-.00024c5.87744-.13489,11.75513-.18641,17.63281-.22571q4.40808-.04835,8.81641-.01892c2.93872.017,5.87744-.00379,8.81616.05l.01562.00024a.46.46,0,0,1,.45289.46814c-.04932,3.30713-.08106,6.62-.17627,9.88538Zm-.0708-.0708-.25659-9.85c-.09521-3.24414-.1272-6.44079-.17627-9.64343l.468.46826c-2.93872.05383-5.87744.03308-8.81616.05q-4.40845.026-8.81641-.01892c-5.87768-.03931-11.75537-.09082-17.63281-.22571l.27368-.27368q-.0985,4.88214-.11621,9.7644c-.02148,1.62732.01758,3.25476.02344,4.88208.0061,1.62744.03662,3.25489.07568,4.88221l-.25659-.2566c2.92529-.05517,5.83154-.13916,8.73755-.15625,2.905-.02624,5.81006-.01782,8.73633.02918C486.87469,161.88255,492.76067,162.01915,498.79485,162.182Z"/><path d="M463.56438,168.1898c2.939-.20618,5.87769-.30286,8.81666-.38281,2.93872-.09143,5.87744-.10437,8.8164-.11682,2.93872.0111,5.87744.02441,8.81641.115l4.4082.13952c1.46924.08313,2.93872.13172,4.4082.24512-1.46948.1134-2.939.16211-4.4082.24512l-4.4082.13952c-2.939.09058-5.87769.10389-8.81641.11512-2.939-.01258-5.87768-.02552-8.8164-.117C469.44207,168.49266,466.50335,168.3961,463.56438,168.1898Z"/><path d="M463.56438,175.11021c2.939-.20618,5.87769-.30286,8.81666-.38281,2.93872-.09143,5.87744-.10425,8.8164-.11682,2.93872.01123,5.87744.02441,8.81641.115l4.4082.13952c1.46924.08313,2.93872.13172,4.4082.24512-1.46948.1134-2.939.16211-4.4082.24512l-4.4082.13952c-2.939.09058-5.87769.10389-8.81641.11512-2.939-.01258-5.87768-.02552-8.8164-.11683C469.44207,175.41307,466.50335,175.31651,463.56438,175.11021Z"/><path d="M463.56438,182.12547c2.939-.2063,5.87769-.30286,8.81666-.38281,2.93872-.09143,5.87744-.10437,8.8164-.117,2.93872.01123,5.87744.02454,8.81641.11512l4.4082.13952c1.46924.083,2.93872.13172,4.4082.24512-1.46948.1134-2.939.162-4.4082.24512l-4.4082.13952c-2.939.09058-5.87769.10388-8.81641.115-2.939-.01245-5.87768-.02539-8.8164-.11682C469.44207,182.42833,466.50335,182.33165,463.56438,182.12547Z"/><path d="M484.456,206.90367l-4.81348.1875c-1.63428.042-3.26489.12085-4.93213.137l-4.99463.08008c-1.67407-.00842-3.34692-.00659-5.01367-.04981l-.02-.00048a.38005.38005,0,0,1-.37012-.38965c.07618-2.95459.21314-5.90918.22315-8.86377.033-1.4773-.00293-2.95459-.01123-4.43189-.00635-1.47729-.06543-2.95459-.09546-4.43188a.268.268,0,0,1,.25976-.27332l.01392-.00049c3.28638-.10009,6.57275-.176,9.85913-.2019,3.28638-.03882,6.57275-.08142,9.85913-.04883l.00733.00012a.52271.52271,0,0,1,.51733.52442c-.01147,3.0188-.104,6.02942-.17212,9.00976Zm-.0708-.07068-.3169-8.97437c-.06811-2.92883-.16064-5.82739-.17212-8.71789l.52417.52441c-3.28638.03259-6.57275-.01-9.85913-.0487-3.28638-.02588-6.57275-.10181-9.85913-.202l.27368-.27368c-.03,1.47729-.08911,2.95459-.09546,4.43188-.008,1.4773-.04419,2.95459-.01123,4.43189.01,2.95459.147,5.90918.22315,8.86377l-.39014-.39c1.61987-.04321,3.2334-.04138,4.8457-.04968l4.86451.08c1.61914.01611,3.2749.095,4.92724.137Z"/><path d="M498.86565,206.90367c-1.583.10095-3.24194.193-4.93628.26294-1.68725.09692-3.42675.09741-5.14794.13476a.42346.42346,0,0,1-.43262-.4143l-.00049-.0188c-.07275-2.95459.1023-5.90918.21973-8.86377.04809-1.4773.082-2.95459.04931-4.43189-.0061-1.47729-.0559-2.95459-.10962-4.43188a.26333.26333,0,0,1,.252-.27283l.02173-.001q2.5122-.10785,5.02441-.16259L498.83,188.625a.50756.50756,0,0,1,.51562.49963l.00025.00184v.01428c.03662,3.01367.00561,6.05786-.10816,9.03271C499.15521,201.15989,499.01214,204.08958,498.86565,206.90367Zm-.0708-.07068c-.14648-3.09509-.28955-6.07446-.37231-8.99732-.11353-2.93432-.14453-5.79931-.10816-8.69494l.51563.51562-5.02417-.07922q-2.5122-.05292-5.02441-.16272l.27368-.27368c-.05371,1.47729-.10376,2.95459-.10987,4.43188-.03247,1.4773.00122,2.95459.04932,4.43189.11768,2.95459.29248,5.90918.22,8.86377l-.4331-.433c1.62866.03736,3.23852.03785,4.90087.13477C495.33733,206.64012,497.02825,206.732,498.79485,206.833Z"/><path d="M375.17669,228.97911a50.93746,50.93746,0,0,1,11.99463-1.86292,29.57118,29.57118,0,0,1,6.0979.40759,15.57847,15.57847,0,0,1,5.77344,2.16822,9.88025,9.88025,0,0,1,3.84375,4.88818c.66455,1.973,1.17822,3.88245,1.80224,5.81848q1.80505,5.78577,3.8064,11.5055c2.69873,7.61071,5.54053,15.17749,8.92822,22.49047a116.73256,116.73256,0,0,0,5.56641,10.694,48.4803,48.4803,0,0,0,7.12378,9.542,16.41391,16.41391,0,0,0,4.65332,3.38842,7.36751,7.36751,0,0,0,5.39428.43164,10.95446,10.95446,0,0,0,4.84961-2.83545,18.39008,18.39008,0,0,0,3.353-4.7351,38.576,38.576,0,0,0,2.16113-5.532c.54688-1.91822,1.05274-3.85425,1.418-5.82789.76685-3.93689,1.282-7.93493,1.67017-11.94751.75879-8.03088,1.00854-16.119,1.17969-24.20312.21508-8.0863.24853-16.18.42944-24.272.27515,16.17956.77661,32.37561-.39844,48.57983a106.16175,106.16175,0,0,1-1.54,12.10376c-.35962,2.0083-.86425,3.99463-1.41577,5.96948a39.94927,39.94927,0,0,1-2.2185,5.77393,19.83467,19.83467,0,0,1-3.604,5.14038,12.45513,12.45513,0,0,1-5.48242,3.241,8.39137,8.39137,0,0,1-3.26221.36621,9.89047,9.89047,0,0,1-3.16259-.84107,17.792,17.792,0,0,1-5.134-3.678,49.92568,49.92568,0,0,1-7.31079-9.89672,118.16607,118.16607,0,0,1-5.57422-10.86268,225.94337,225.94337,0,0,1-8.76928-22.69958q-1.9087-5.77312-3.61255-11.608c-.58252-1.92554-1.09058-3.93567-1.68433-5.8064a9.12762,9.12762,0,0,0-3.44482-4.55212,14.90991,14.90991,0,0,0-5.45386-2.22193,29.08805,29.08805,0,0,0-5.97778-.57312,47.81188,47.81188,0,0,0-6.0315.39344A53.43964,53.43964,0,0,0,375.17669,228.97911Z"/><rect x="438.77502" y="219.09759" width="26.44929" height="9.9728"/><path d="M534.05741,256.21826c0,.66-.01,1.32-.02,1.98h-1.96c-.01-.66-.02-1.32-.02-1.98,0-2.08.08008-4.15.22-6.2301a51.096,51.096,0,0,1,.78-6.24,47.49464,47.49464,0,0,1,.77979,6.24C533.98734,252.06824,534.06742,254.1383,534.05741,256.21826Z"/><path d="M515.32743,273.42822c-.02,2.14-.07007,4.28-.22021,6.42a54.48,54.48,0,0,1-.77979,6.42994,52.4069,52.4069,0,0,1-.78-6.42994c-.15991-2.14-.2-4.28-.22-6.42.00977-.54993.00977-1.11.02-1.66h1.96C515.31742,272.31824,515.31742,272.87829,515.32743,273.42822Z"/><path d="M525.42728,266.14831c-.01,1.86988-.03,3.75-.07006,5.61988h-1.85987c-.04-1.86988-.06006-3.75-.07007-5.61988.02-2.65014.04-5.3.14014-7.95007h1.72C525.38749,260.84826,525.40727,263.49817,525.42728,266.14831Z"/><path d="M502.74735,266.14831c-.01,1.86988-.03,3.75-.07007,5.61988h-1.85986c-.04-1.86988-.06006-3.75-.07007-5.61988.02-2.65014.04-5.3.14014-7.95007h1.71973C502.70731,260.84826,502.72733,263.49817,502.74735,266.14831Z"/><path d="M494.80741,273.42822c-.02,2.14-.07007,4.28-.22021,6.42a54.48,54.48,0,0,1-.77979,6.42994,52.4536,52.4536,0,0,1-.78-6.42994c-.15991-2.14-.2-4.28-.22-6.42.01-.54993.01-1.11.02-1.66h1.96C494.7974,272.31824,494.7974,272.87829,494.80741,273.42822Z"/><path d="M537.28739,273.42822c-.02,2.14-.07007,4.28-.22,6.42a54.52922,54.52922,0,0,1-.78,6.42994,52.45555,52.45555,0,0,1-.78-6.42994c-.15991-2.14-.19995-4.28-.22-6.42.01-.54993.01-1.11.02-1.66h1.96C537.27738,272.31824,537.27738,272.87829,537.28739,273.42822Z"/><path d="M514.70731,256.06824q0,1.06494-.03,2.13h-1.93994q-.03-1.06512-.03-2.13c-.01-2.07007.07007-4.15.22-6.23a48.91031,48.91031,0,0,1,.78-6.23,48.9067,48.9067,0,0,1,.78,6.23C514.62724,251.91821,514.70731,253.99817,514.70731,256.06824Z"/><path d="M493.80741,258.19824c4.17163-.41382,8.34326-.63025,12.51489-.77734,4.17164-.15955,8.34327-.20215,12.51514-.22205,4.17163.01746,8.34326.06006,12.51489.219,4.17163.1466,8.34327.36413,12.5149.78039-4.17163.41626-8.34327.63391-12.5149.7804-4.17163.15893-8.34326.20153-12.51489.219-4.17187-.0199-8.3435-.0625-12.51514-.22205C502.15067,258.82849,497.979,258.61206,493.80741,258.19824Z"/><path d="M539.86723,271.76819c-4.17163.41382-8.34327.63037-12.5149.77746-4.17163.15955-8.34326.202-12.51489.222-4.17187-.01758-8.3435-.06006-12.51514-.21912-4.17163-.14648-8.34326-.364-12.51489-.78039,4.17163-.41626,8.34326-.63379,12.51489-.78028,4.17164-.159,8.34327-.20166,12.51514-.21911,4.17163.02,8.34326.0625,12.51489.222C531.524,271.13794,535.6956,271.35449,539.86723,271.76819Z"/><path d="M335.4534,137.37635c0,.66-.01,1.32-.02,1.98h-1.96c-.01-.66-.02-1.31995-.02-1.98,0-2.07995.08008-4.15.22-6.2301a51.09429,51.09429,0,0,1,.78-6.24,47.49313,47.49313,0,0,1,.77978,6.24C335.38333,133.22633,335.46341,135.2964,335.4534,137.37635Z"/><path d="M316.72342,154.58632c-.02,2.14-.07007,4.28-.22022,6.42a54.47773,54.47773,0,0,1-.77978,6.42993,52.4048,52.4048,0,0,1-.78-6.42993c-.15991-2.14-.2-4.28-.22-6.42.00976-.54993.00976-1.11.02-1.66h1.96C316.71341,153.47633,316.71341,154.03639,316.72342,154.58632Z"/><path d="M326.82327,147.30641c-.01,1.86987-.03,3.75-.07007,5.61987h-1.85986c-.04-1.86987-.06006-3.75-.07007-5.61987.02-2.65015.04-5.3.14014-7.95007h1.72C326.78348,142.00636,326.80325,144.65626,326.82327,147.30641Z"/><path d="M304.14334,147.30641c-.01,1.86987-.03,3.75-.07007,5.61987h-1.85986c-.04-1.86987-.06006-3.75-.07007-5.61987.02-2.65015.04-5.3.14014-7.95007h1.71972C304.1033,142.00636,304.12332,144.65626,304.14334,147.30641Z"/><path d="M296.2034,154.58632c-.02,2.14-.07007,4.28-.22022,6.42a54.47773,54.47773,0,0,1-.77978,6.42993,52.45344,52.45344,0,0,1-.78-6.42993c-.15991-2.14-.2-4.28-.22-6.42.01-.54993.01-1.11.02-1.66h1.96C296.19339,153.47633,296.19339,154.03639,296.2034,154.58632Z"/><path d="M338.68338,154.58632c-.02,2.14-.07007,4.28-.22,6.42a54.53116,54.53116,0,0,1-.78,6.42993,52.45344,52.45344,0,0,1-.78-6.42993c-.15991-2.14-.2-4.28-.22-6.42.01-.54993.01-1.11.02-1.66h1.96C338.67337,153.47633,338.67337,154.03639,338.68338,154.58632Z"/><path d="M316.1033,137.22633q0,1.06494-.03,2.13h-1.93994q-.03-1.06513-.03-2.13c-.01-2.07007.07007-4.15.22-6.23a48.91015,48.91015,0,0,1,.78-6.23,48.91015,48.91015,0,0,1,.78,6.23C316.02322,133.07631,316.1033,135.15626,316.1033,137.22633Z"/><path d="M295.2034,139.35634c4.17163-.41382,8.34326-.63025,12.51489-.77735,4.17163-.15954,8.34326-.20215,12.51514-.222,4.17163.01745,8.34326.06,12.51489.219,4.17163.14661,8.34326.36414,12.51489.7804-4.17163.41626-8.34326.63391-12.51489.78039-4.17163.15894-8.34326.20154-12.51489.219-4.17188-.0199-8.34351-.0625-12.51514-.222C303.54666,139.98658,299.375,139.77015,295.2034,139.35634Z"/><path d="M341.26321,152.92628c-4.17163.41382-8.34326.63037-12.51489.77747-4.17163.15954-8.34326.202-12.51489.222-4.17188-.01757-8.34351-.06006-12.51514-.21911-4.17163-.14649-8.34326-.364-12.51489-.7804,4.17163-.41626,8.34326-.63379,12.51489-.78027,4.17163-.15906,8.34326-.20166,12.51514-.21912,4.17163.02,8.34326.0625,12.51489.22205C332.91995,152.296,337.09158,152.51259,341.26321,152.92628Z"/></svg>